<?xml version="1.0" encoding="UTF-8" standalone="no"?> <!-- Created with Vectornator for iOS (http://vectornator.io/) --><!DOCTYPE svg PUBLIC "-//W3C//DTD SVG 1.1//EN" "http://www.w3.org/Graphics/SVG/1.1/DTD/svg11.dtd">
<svg style="fill-rule:evenodd;clip-rule:evenodd;stroke-linecap:round;stroke-linejoin:round;" xmlns:vectornator="http://vectornator.io" xmlns:xlink="http://www.w3.org/1999/xlink" xmlns="http://www.w3.org/2000/svg" xml:space="preserve" version="1.1" viewBox="0 0 400 400">
<metadata>
<vectornator:setting key="GridSpacing" value="36"/>
<vectornator:setting key="SnapToPoints" value="0"/>
<vectornator:setting key="OutlineMode" value="0"/>
<vectornator:setting key="RulersVisible" value="1"/>
<vectornator:setting key="CMYKEnabledKey" value="0"/>
<vectornator:setting key="SnapToEdges" value="0"/>
<vectornator:setting key="DisplayWhiteBackground" value="0"/>
<vectornator:setting key="ShowGrid" value="1"/>
<vectornator:setting key="Units" value="Pixels"/>
<vectornator:setting key="DynamicGuides" value="0"/>
<vectornator:setting key="SnapToGrid" value="0"/>
<vectornator:setting key="IsolateActiveLayer" value="0"/>
</metadata>
<defs/>
<g id="Ebene 4" vectornator:layerName="Ebene 4">
<path stroke="#ffffff" vectornator:shadowColor="#000000" vectornator:shadowOffset="10" stroke-width="5.15" fill="#ffffff" stroke-linecap="butt" vectornator:shadowAngle="1.5708" stroke-linejoin="round" opacity="1" vectornator:shadowRadius="10" d="M154.912+37.8476C156.711+35.9532+175.296+21.7951+173.052+31.5345C172.589+33.5434+165.152+35.9419+163.455+36.9092C159.41+39.2146+154.277+46.6982+152.183+50.768C149.946+55.1162+148.138+60.78+147.283+65.6439C147.1+66.6833+147.298+68.1556+147.947+69.1463C148.272+69.6423+149.729+70.4302+149.137+70.4686C147.44+70.5787+145.627+70.235+144.15+69.3926C142.493+68.4482+145.316+65.7596+146.003+63.9809C147.533+60.0188+149.316+56.1629+150.853+52.2015C155.742+39.5986+158.516+33.2179+170.578+25.9823C171.912+25.1822+185.18+18.2951+185.154+18.4766C183.827+27.6715+179.592+25.6443+173.674+32.5164C167.941+39.1747+162.979+47.3176+159.787+55.4848C156.952+62.7378+154.985+70.3948+153.807+78.0876C153.182+82.1714+152.522+89.2198+152.426+89.2427C150.083+89.8036+147.429+91.3451+145.272+90.2726C144.489+89.8834+150.34+77.6685+150.419+77.4974C157.207+62.681+162.824+47.2363+172.493+33.9368C175.464+29.8497+178.362+24.9121+181.783+21.1491C184.151+18.545+187.56+16.8909+187.54+16.9012C183.119+19.1936+190.021+23.1833+189.958+23.3759C187.219+31.7897+172.64+48.1429+167.637+57.9826C162.545+67.996+158.705+79.9717+156.857+91.0759C156.693+92.0592+154.297+99.5839+155.407+100.356C157.513+101.82+150.501+97.7926+149.493+95.4345C148.625+93.4044+156.584+78.6129+158.483+73.7192C164.597+57.9553+170.466+42.3087+178.379+27.3867C181.714+21.0965+187.865+9.89153+195.741+8.98886C202.618+8.20068+197.05+23.3023+193.961+28.6113C187.51+39.6964+188.685+36.6702+182.883+48.9084C177.577+60.1023+171.389+71.0561+167.051+82.694C165.569+86.6701+164.231+90.5761+163.038+94.6436C162.551+96.3074+163.107+99.8931+161.401+99.5808C159.149+99.1683+155.539+99.7599+154.829+97.583C154.396+96.2552+160.451+81.9837+161.086+80.5413C168.359+64.0002+176.121+45.3226+186.401+30.2765C189.156+26.244+197.919+13.4376+201.829+23.4647C202.87+26.134+196.244+39.0811+195.016+41.5466C189.05+53.5277+181.989+64.8412+176.812+77.2283C174.052+83.8319+171.381+90.5533+168.369+97.0516C167.676+98.5445+166.535+101.433+166.608+103.201C166.655+104.352+167.179+107.636+166.57+106.658C165.138+104.357+163.019+102.507+161.745+100.115C160.963+98.6486+168.357+85.0187+168.954+83.6798C176.172+67.4983+183.475+51.6757+192.874+36.5942C197.068+29.8644+201.174+23.6951+205.944+17.4166C206.232+17.0379+208.591+12.7569+209.739+13.4946C218.984+19.4388+211.225+28.891+206.864+37.2393C198.672+52.9185+189.183+67.4911+182.217+83.859C179.444+90.3744+177.121+96.8225+175.941+103.882C175.644+105.659+173.048+108.207+174.602+109.117C177.515+110.823+169.416+104.033+168.996+100.684C168.548+97.1135+171.44+93.9073+172.917+90.6258C182.875+68.4991+193.142+46.0925+207.847+26.718C208.716+25.5733+216.366+13.7649+218.598+15.0698C220.829+16.3743+224.281+16.7585+225.169+19.1857C225.761+20.8046+217.909+32.7067+217.846+32.8072C209.145+46.8586+202.592+61.7719+195.323+76.5775C192.64+82.0426+190.281+87.8211+187.886+93.4168C186.982+95.5302+186.329+97.7474+185.392+99.8466C184.703+101.392+182.622+106.021+183.303+104.472C184.751+101.183+176.591+101.937+178.112+97.0406C184.011+78.0488+194.798+59.0872+205.623+42.5252C209.935+35.9295+215.111+30.5592+219.748+24.2941C221.126+22.433+222.692+20.0581+224.728+18.6795C225.667+18.0442+227.565+16.7381+228.007+17.7814C232.969+29.4765+224.419+38.2002+219.522+47.9304C209.952+66.9421+196.371+88.0065+189.412+107.851C188.056+111.719+186.81+100.06+185.917+96.0587C184.837+91.222+190.483+87.2604+192.884+82.9252C200.179+69.7534+206.316+56.0949+213.927+43.0846C214.999+41.2523+220.672+27.3021+225.739+29.7644C233.598+33.584+226.638+42.7965+224.788+47.1069C218.892+60.8412+212.796+74.8532+206.211+88.2989C204.369+92.0599+199.36+98.9935+198.789+103.363C198.413+106.232+194.647+98.7186+194.475+95.8303C194.296+92.8256+197.123+90.4239+198.475+87.7343C200.807+83.0934+203.153+78.4597+205.526+73.8391C212.162+60.9145+220.245+43.8773+229.899+32.5827C231.824+30.3304+236.319+35.1512+236.903+38.056C237.55+41.2732+234.65+44.2212+233.449+47.2752C229.049+58.4645+221.984+68.9069+216.148+79.338C215.199+81.0334+211.949+87.7617+211.14+89.7071C210.409+91.4663+210.687+96.8239+209.651+95.2254C208.531+93.4996+208.434+90.7636+206.58+89.8722C205.3+89.2565+203.278+93.323+202.866+91.963C202.866+91.9619+209.051+80.8298+209.848+79.4385C215.448+69.6668+224.016+56.9917+225.182+52.0325C225.512+50.6283+226.252+39.0923+228.478+39.5089C242.913+42.2107+235.941+51.9398+231.358+61.3087C226.231+71.788+217.693+79.8751+210.385+88.8548C208.77+90.8388+206.95+92.6561+205.416+94.703C204.25+96.2587+200.82+100.883+202.32+99.6463C205.002+97.4335+200.792+97.5325+200.026+94.8449C198.689+90.1485+211.372+82.8338+215.801+78.5213L217.526+79.8408C214.053+86.6475+209.993+94.7993+205.549+100.06C202.981+103.101+195.107+102.039+196.22+97.0322C198.508+86.7441+213.704+73.8688+219.504+64.6582C231.278+45.9637+220.049+49.8438+238.01+40.8647C238.291+40.7246+235.894+48.9909+235.875+49.3592C235.603+54.4941+235.541+56.7277+233.188+62.4757C228.937+72.8594+220.216+83.237+213.53+92.1328C212.653+93.2992+207.985+98.3691+206.58+98.2355C198.611+97.4771+206.467+82.9178+207.272+81.2053C212.849+69.3324+220.183+58.2117+225.926+46.3668C227.447+43.2306+227.023+38.8485+229.699+36.6151C231.587+35.0396+234.613+36.1709+237.069+36.3031C237.396+36.3207+237.806+36.733+237.711+37.0468C235.942+42.928+231.102+49.1618+227.825+54.3071C219.921+66.7171+214.367+80.063+207.124+92.8109C205.696+95.3236+204.61+98.5019+202.048+99.8398C199.415+101.215+191.41+103.25+193.197+100.878C201.68+89.6211+206.623+71.4849+212.35+58.7936C217.215+48.011+218.331+37.7362+228.807+34.4582C230.488+33.932+227.932+37.9102+227.085+39.455C225.249+42.8043+223.204+46.0498+221.471+49.4558C214.884+62.402+208.834+75.2096+201.119+87.5368C198.637+91.5017+198.266+97.7623+193.97+99.6115C190.208+101.23+179.244+103.138+182.911+104.961C185.113+106.056+183.644+103.528+183.803+103.015C184.564+100.55+186.18+98.4831+187.398+96.2378C190.497+90.5222+193.151+84.5255+195.961+78.666C200.322+69.5722+217.459+30.9808+222.545+26.3559C224.652+24.4404+228.122+25.1547+230.831+24.2779C233.038+23.5635+228.475+28.2779+227.191+30.2105C223.172+36.2628+218.557+41.6192+214.596+47.7749C206.466+60.4086+199.813+73.4701+193.527+87.074C192.379+89.5592+185.55+106.654+182.604+107.609C180.421+108.317+178.365+105.813+176.392+104.641C175.009+103.819+178.627+97.8223+178.865+97.3361C181.013+92.9417+182.731+87.2375+184.563+82.7682C192.055+64.491+200.53+45.4622+210.944+28.7556C212.985+25.4806+218.201+13.4338+224.559+19.9398C226.191+21.6097+222.347+24.0618+221.035+25.9933C216.22+33.0818+210.537+39.4579+206.05+46.7934C196.851+61.8316+190.186+78.7105+182.265+94.4569C180.734+97.5+180.259+101.409+177.615+103.557C174.947+105.725+165.009+105.486+167.976+107.224C168.613+107.597+168.27+105.776+168.401+105.049C168.59+104.001+169.705+99.7213+170.216+97.6799C171.763+91.5013+173.649+85.7646+176.289+79.963C183.509+64.0991+192.719+49.7445+200.751+34.4068C205.065+26.1699+204.619+16.7768+214.514+17.3144C214.565+17.3172+208.209+26.6061+207.674+27.505C203.51+34.5007+198.858+41.2799+194.91+48.4377C186.59+63.5236+179.979+79.6205+172.737+95.2281C171.241+98.4522+167.481+107.876+164.231+109.45C160.656+111.181+160.833+105.737+160.81+104.389C160.739+100.164+161.942+96.2359+163.572+92.3786C171.374+73.9183+179.415+56.3227+188.904+38.6702C192.295+32.3612+196.321+19.5673+200.327+25.2164C201.439+26.785+197.643+27.9808+196.456+29.4935C192.78+34.1769+190.325+38.9227+187.417+44.1389C180.359+56.7978+174.285+70.1398+168.384+83.3666C164.465+92.1519+166.078+97.9897+155.465+97.6019C153.795+97.5409+156.867+94.5576+157.356+92.96C158.667+88.6818+159.855+84.4086+161.411+80.2056C167.185+64.6093+175.122+49.4364+182.898+34.7404C184.521+31.6727+190.638+16.8354+193.476+14.5628C194.695+13.5873+198.368+13.0158+198.159+14.5626C197.592+18.7567+189.113+26.2031+186.896+30.3309C178.862+45.2853+173.166+61.4767+166.45+77.0804C165.758+78.6877+158.316+97.5892+157.29+98.219C154.621+99.8569+151.123+99.335+148.088+100.104C147.827+100.17+148.692+100.57+148.854+100.356C149.402+99.632+149.619+93.9944+149.91+92.8009C151.503+86.267+153.181+79.6328+154.618+73.0291C158.079+57.1248+168.309+41.5488+177.846+28.5146C179.339+26.4733+185.627+15.5759+188.683+16.4119C196.398+18.5224+184.567+29.1012+181.599+33.0939C172.369+45.5096+166.335+59.0109+160.294+73.3166C156.114+83.2164+156.574+89.1048+146.29+92.3109C144.651+92.8216+145.255+84.6014+145.303+84.2083C145.717+80.8192+146.097+77.2045+147.056+73.9241C152.107+56.6494+157.617+41.8987+169.912+28.0381C172.96+24.6025+176.193+22.8915+180.081+20.8206C181.583+20.0206+183.897+17.0159+184.649+18.5424C188.911+27.1932+168.288+30.3129+162.436+38.8276C157.486+46.0286+154.982+56.1195+152.129+64.2237C151.658+65.5624+151.047+71.7707+150.029+72.3321C148.421+73.2187+146.3+72.2545+144.537+72.7687C141.086+73.7753+143.504+59.2348+145.653+54.4989C148.854+47.4458+154.599+36.8946+161.981+33.2245C162.966+32.7349+171.402+28.4+171.543+28.5158C172.267+29.1115+173.987+31.2499+173.152+30.8238C167.819+28.1038+159.4+36.5036+156.408+39.3443" vectornator:shadowOpacity="0.712923"/>
<path stroke="#ffffff" vectornator:shadowColor="#000000" vectornator:shadowOffset="10" stroke-width="10.73" fill="#00d4ff" stroke-linecap="butt" vectornator:shadowAngle="1.5708" stroke-linejoin="round" opacity="1" vectornator:shadowRadius="10" d="M63.519+59.2116L63.6581+66.7261L64.1948+76.3404L67.1535+84.2342L72.1421+87.3468L75.7113+84.8236L76.9962+79.9784L78.4275+75.5147L78.9462+74.5267L80.1899+66.8513L80.7527+61.3325L80.3691+57.9148L79.5345+57.635L78.5591+58.0275L77.266+58.4837L74.3183+58.7151L72.6839+59.2674L69.098+61.1016L63.9132+64.4657L58.6329+69.6889L58.4134+70.3486L58.1339+73.1813L60.0479+74.747L61.0429+73.5527L64.3623+73.3337L70.2644+72.4976L74.471+66.7921L74.62+65.1042L76.3986+60.103L76.9815+53.9643L77.6578+52.6413L77.1161+50.6809L75.2877+50.0527L75.2051+50.7634L73.564+52.0404L67.9958+59.3903L66.6957+62.4814L65.2631+68.9424L68.2726+77.2438L68.9171+76.8301L72.5672+78.1674L76.3776+77.0012L76.7724+71.839L78.8591+65.8334L79.2571+62.0109L78.9953+60.5538L78.4723+60.4486L77.9483+61.456L76.567+62.5227L77.0052+63.0584L74.7965+67.2044L72.4339+74.2086L73.4219+79.5017L74.2205+79.8135L75.6102+79.5086L76.343+76.8009L73.1597+72.3721L72.9892+70.3291L73.4094+63.3925L74.3957+56.8263L73.287+54.1481L73.1731+55.4132L71.9997+55.2597L68.6294+55.7003L63.2069+58.549L60.2408+61.9742L58.7891+63.3609L57.3233+67.3226L57.6781+72.7626L58.0059+73.0902L59.9424+75.3004L62.7641+75.0701L61.8973+74.1629L59.7185+71.1243L60.3941+62.988L60.7974+59.9877L61.1331+50.2776L59.2807+47.0931L57.136+47.5614L56.757+48.4057L54.2538+51.334L54.4647+52.8024L53.6968+58.0739L53.2626+60.9038L52.3377+68.1917L55.2701+74.3138L56.3244+73.8554L56.6791+70.0973L56.4409+64.4359L58.0225+54.5012L59.6459+47.2755L59.5852+43.6641L59.2045+44.3648L57.6851+45.4833L56.5366+45.5612L52.9258+47.2059L48.3363+51.0149L47.8055+53.2999L44.7769+59.4832L43.7845+66.0612L44.7243+67.7742L48.7538+71.8994L50.621+73.2245L56.1616+72.332L56.729+70.0121L58.2876+63.1656L61.175+46.8774L61.8365+40.2693L57.863+38.4301L57.2911+40.0078L53.7077+41.5545L51.7593+42.7082L46.2033+48.7785L41.8772+58.6185L42.9711+68.3067L47.7977+73.5278L48.9031+72.0881L50.7385+69.4442L53.6438+66.8962L57.7191+58.6674L58.7277+54.558L60.0253+43.4037L59.7133+40.6064L56.9763+39.9871L55.3557+40.9873L49.8896+42.8138L42.5797+49.5232L41.6508+51.1413L37.4054+57.8621L36.2301+60.2673L35.7797+68.9491L43.025+78.3587L49.6497+78.6352L51.0154+70.5711L49.4447+68.9349L50.1561+58.2479L48.5726+49.0079L43.1378+46.9874L37.8506+51.2005L38.0571+53.5597L35.8973+60.2032L35.8428+62.7615L37.7741+70.5022L44.4961+76.3007L44.5886+74.9839L48.9249+73.5274L55.449+67.4746L57.0026+59.2225L56.4833+58.3133L55.4822+54.3527L54.6864+54.4403L50.4336+54.1735L42.2471+53.9335L40.5351+55.5179L37.7233+62.0105L37.2092+64.582L35.8182+74.3604L35.9295+78.1523L39.2649+88.1622L40.8328+90.8352L47.5247+95.8886L54.2787+87.0192L53.908+72.674L53.6904+65.4334L47.7613+67.2278L48.6739+69.2852L41.2191+73.9925L35.3868+80.5903L38.9348+86.7926L40.8177+84.8069L46.5867+84.2086L54.2954+84.4587L56.3177+80.9189L50.456+75.978L49.1345+77.7443L44.6461+74.6971L37.6941+71.1019L37.9297+71.4242L35.2951+73.4949L33.9998+74.4153L32.9643+78.3832L35.0779+81.9127L39.4595+88.148L40.4553+88.5953L44.3551+87.0324L44.8555+78.4404L41.2064+70.3472L34.6805+65.0287L28.1781+65.497L28.2209+66.8125L28.8518+73.5759L35.338+86.6145L37.2214+87.4669L45.6893+89.572L46.2893+88.5888L48.1345+82.1258L53.7381+73.2837L53.2689+72.9009L51.2747+73.8456L47.2663+81.212L48.8369+82.9499L53.0403+97.0596L54.7697+99.7873L60.114+103.516L60.5582+102.943L62.9811+101.11L64.6202+97.1924L58.6557+96.3175L55.5101+98.7814L66.2533+104.186L67.9398+100.489L70.9064+104.551L76.59+106.393L78.2649+99.0605L73.4734+93.018L67.9875+92.4116L68.2452+94.6414L66.909+98.5743L68.8225+99.8526L77.2587+102.206L78.7591+103.103L83.6125+101.801L83.774+100.371L83.2941+90.329L83.1085+88.6171L85.2039+83.2907L81.3607+83.7454L89.0693+104.793L90.5906+103.077L93.0494+105.791L92.9025+95.272L88.423+83.5811L88.6846+84.0698L90.4778+91.6213L98.2842+100.731L98.5099+102.137L100.247+101.72L99.9693+99.0235L91.056+92.8963L90.9066+91.5306L89.7309+80.4744L89.4987+79.3571L85.4136+76.6949L85.7862+81.898L95.5378+93.6277L95.8981+95.6639L97.8945+92.8972L88.2793+77.6848L86.3643+70.6598L85.0182+71.776L90.4351+78.4842L98.9518+86.536L102.954+86.8755L89.1522+70.5981L85.1392+59.5978L83.4592+59.201L89.6078+66.4872L97.2408+78.181L101.229+77.2879L94.0917+60.0693L96.5771+56.8765L92.3247+67.3347L102.394+70.9717L105.834+76.9053L107.227+74.6958L94.1104+70.4664L88.0752+62.4272L87.3706+61.1634L82.8139+54.3734L79.0147+48.7819L78.9875+48.0821L76.2991+44.1002L74.0279+41.8598L72.8662+42.9513L71.8511+42.9687L68.4229+42.7933L62.4209+39.5992L55.9118+36.139L55.0222+35.9163L49.5203+33.6362L47.8181+30.7073L58.9504+17.3449L69.2009+23.6346L75.944+23.9957L80.3549+26.1205L81.7475+26.2539L84.4513+26.0075L90.5502+31.5582L94.5571+34.2196L99.9561+44.9195L97.8309+61.1313L97.6861+63.7608L96.8232+63.9444L94.0393+61.9556L87.9555+51.7769L87.4166+43.3436L84.1661+42.0464L82.3478+39.6799L77.7942+38.114L77.8673+38.2474L71.7219+36.4137L63.2905+35.4552L55.7274+31.8484L56.9632+14.5275L59.2196+14.2376L64.9337+17.8954L67.343+18.9922L70.7302+21.4699L72.6455+24.2137L77.1344+25.3578L82.7169+27.3544L88.1529+30.4253L91.8196+34.1227L94.4093+38.058L95.0419+38.6778L99.1598+44.9621L105.819+56.6454L106.434+58.6805L106.996+79.6708L93.8801+78.7403L91.974+77.8503L92.1148+60.6921L103.504+58.3913L109.808+62.9116L107.015+72.2543L88.0021+80.1068L82.0939+77.2343L91.0464+50.6619L98.5145+53.9895L102.772+58.211L104.697+76.9001L89.5755+89.6523L85.0012+85.3735L94.8374+63.0761L101.574+68.4648L103.527+72.22L102.271+82.3489L87.3781+100.784L84.0963+96.0385L83.7969+92.1368L92.8887+68.2393L99.1992+67.5045L105.67+79.3571L106.758+81.5386L104.262+96.8729L103.453+100.785L87.2825+109.173L85.025+106.477L83.4639+99.462L83.6895+96.9089L96.774+80.2882L100.547+85.8603L104.767+91.6272L91.0505+109.626L79.0279+112.301L72.9097+99.1814L74.431+94.8265L90.7166+79.5872L99.4089+85.32L99.525+98.467L98.0199+101.373L83.0251+113.103L79.8878+113.653L65.6081+109.052L63.1499+105.991L63.0091+84.5924L66.2422+82.5718L77.4415+84.5255L80.998+88.0748L86.7281+99.3441L80.6171+111.115L69.7564+114.999L60.9253+110.903L55.9747+103.09L56.3416+96.7527L65.1055+89.6222L69.8771+96.7044L69.8505+105.726L64.8919+111.046L53.4598+112.511L50.6052+111.938L38.7956+100.492L37.2262+95.3025L42.7491+72.4654L47.6186+69.585L60.764+69.694L63.3882+78.5558L62.919+80.8121L55.987+91.7629L43.3174+98.4952L40.6186+98.8315L25.9948+91.6999L23.2598+86.6145L19.1898+65.3453L30.3769+54.9549L35.0381+55.6106L45.6895+60.6973L54.3382+73.1924L51.3489+87.5312L42.6126+96.0931L32.6574+93.8704L30.3543+91.6786L22.8601+78.121L24.314+69.115L29.8762+66.4852L31.8796+64.7665L42.4403+60.8994L44.6552+61.2217L54.1974+65.5437L62.2444+75.032L63.562+80.0971L59.0198+90.9905L52.4652+94.7081L41.7005+94.9583L28.9961+87.7623L27.5801+82.4778L29.1489+70.8664L37.8314+62.2897L50.8293+59.7396L56.3602+61.7969L66.2655+68.2097L66.0479+81.4218L54.4612+97.4258L40.1028+103.071L30.3006+94.2696L28.5696+90.3449L25.3074+76.6033L25.4186+71.8183L28.6461+58.5049L30.771+54.4788L39.835+47.1163L43.401+46.7215L53.688+46.4814L63.9499+51.4928L65.7932+53.5596L66.7714+62.1346L65.5923+65.8437L59.2288+76.065L49.2587+83.2074L37.101+83.0705L34.5544+81.094L26.1018+71.0581L25.3941+57.6864L26.6591+53.6471L34.3958+43.7964L39.2207+42.197L50.4275+42.4516L58.8477+49.0079L61.8826+60.8804L57.9757+75.2644L53.7659+80.8857L42.5961+86.0169L32.0669+81.0152L26.7767+67.3331L28.3056+55.5622L29.7693+52.6893L35.4204+43.5758L38.4501+40.5755L49.6136+33.4299L59.9818+33.277L64.9589+35.5968L68.8195+41.5751L69.1673+45.3755L66.5063+58.6325L64.2161+63.7597L57.0754+74.0044L52.0635+77.3942L42.6829+78.0492L39.17+75.9497L33.4403+65.9962L34.5342+53.2524L40.7644+41.9799L49.7232+34.855L53.0529+33.3697L62.005+32.937L65.3917+35.1745L71.3147+41.9122L72.636+51.1385L66.2866+68.4983L57.9488+79.4654L53.8978+81.1041L43.6041+78.892L40.8529+76.2585L35.6457+67.1885L35.266+62.9636L36.9126+55.0268L41.8013+46.6953L44.5692+43.7022L51.1958+39.594L58.1411+37.9398L60.9513+38.0178L68.0088+41.7753L69.6074+44.4553L70.8663+50.0806L69.1908+58.6893L64.1748+72.5061L56.6791+80.04L48.4569+78.2612L46.2124+75.8234L43.2069+67.4308L42.9418+57.5647L43.8271+53.797L48.9971+43.2342L51.847+40.744L60.5598+39.7137L63.4796+41.2178L68.5924+45.6446L72.018+51.0371L71.694+62.4394L70.7778+66.6965L66.8351+77.6934L59.3781+83.2317L55.8723+82.3246L49.4572+78.7954L47.4351+71.7689L47.7629+69.4575L50.0971+61.7022L53.9094+57.087L56.4162+55.1748L61.3673+52.6622L69.1401+49.5729L73.687+49.3539L80.4307+51.1796L81.6364+53.1045L83.8265+57.6837L84.153+64.9725L82.594+73.2105L81.1039+78.4249L73.3022+86.5316L68.0972+85.1434L64.8685+80.2202L64.3476+77.2332L65.9954+70.6505L69.5706+63.1399L75.2792+56.7297L77.0368+55.9459L81.5934+56.3528L84.3682+58.6798L85.1648+60.5538L85.5627+63.7151L85.301+69.1293L81.4498+78.2982L73.2676+86.3313L66.5219+85.8249L58.9559+79.245L58.2809+76.852L57.3318+65.3605L61.1774+57.9664L63.8358+54.46L72.1227+46.6353L77.739+45.2732L80.2955+45.9839L84.4049+49.3143L86.5022+53.9515L86.5188+56.5871L85.1224+64.3034L81.6229+71.8378L78.473+75.428L69.4844+81.5982L61.5314+81.4219L55.6142+78.5638L52.6506+75.3902L50.606+70.3583L52.9656+64.6141L54.0655+63.2945L60.661+57.9614L66.6922+55.3877L71.6832+53.2633L74.0074+52.496L78.9769+52.0677L82.962+52.5239L86.6049+55.5555L87.7496+57.9148L88.6855+63.0739L87.9288+69.4309L84.5542+76.9301L83.7533+78.5811L80.5662+85.3334L73.9339+91.0445L65.6275+91.1603L59.4+85.0362L57.7404+75.1163L58.9368+64.278L65.6736+53.9789L96.8232+63.9444C86.7717+56.7635+91.1306+45.1002+82.3478+39.6799C77.162+36.4795+56.9595+35.9236+55.7274+31.8484C54.0522+26.3078+55.8373+20.2052+56.9632+14.5275C57.7583+10.5178+71.7266+23.6559+72.6455+24.2137C77.3766+27.086+83.3365+26.844+88.1529+30.4253C99.2083+38.6454+115.226+66.5214+106.996+79.6708C104.671+83.3863+98.2314+79.2676+93.8801+78.7403C87.8792+78.013+89.0334+65.8925+92.1148+60.6921C97.0518+52.36+119.843+62.139+107.015+72.2543C84.0926+90.33+72.078+77.5133+91.0464+50.6619C92.4869+48.6228+102.338+56.6029+102.772+58.211C107.259+74.8361+107.499+81.9414+89.5755+89.6523C87.6576+90.4774+84.5957+87.4216+85.0012+85.3735C86.579+77.4046+89.1512+68.8776+94.8374+63.0761C96.2501+61.6348+103.4+69.6971+103.527+72.22C104.143+84.4926+97.8069+92.9294+87.3781+100.784C84.1073+103.248+83.7328+92.3393+83.7969+92.1368C89.4215+74.3534+92.7342+61.8811+99.1992+67.5045C115.622+81.7898+106.822+103.138+87.2825+109.173C84.8717+109.918+82.2613+98.9663+83.6895+96.9089C87.7103+91.1167+90.8768+84.1534+96.774+80.2882C98.65+79.0586+99.2542+84.027+100.547+85.8603C101.919+87.8073+105.651+89.4152+104.767+91.6272C101.968+98.6318+96.9313+104.902+91.0505+109.626C78.8321+119.44+75.4569+108.865+72.9097+99.1814C70.6644+90.6462+82.4682+82.7265+90.7166+79.5872C102.919+74.9429+99.5655+97.9985+99.525+98.467C97.8195+118.178+75.2935+113.486+65.6081+109.052C53.2536+103.397+55.8908+76.4885+77.4415+84.5255C93.7483+90.6068+85.9009+115.173+69.7564+114.999C57.0499+114.861+48.2317+89.6823+65.1055+89.6222C77.1062+89.5794+67.3317+125.647+50.6052+111.938C34.3082+98.5811+33.9598+94.2158+42.7491+72.4654C45.3544+66.0183+60.5624+63.9774+63.3882+78.5558C65.3831+88.848+49.2876+95.7492+43.3174+98.4952C25.632+106.629+17.4068+73.2767+19.1898+65.3453C22.4915+50.658+38.4828+54.1322+45.6895+60.6973C55.1024+69.2721+57.3137+75.8816+51.3489+87.5312C49.4906+91.1605+46.474+94.7835+42.6126+96.0931C32.2749+99.5991+24.4965+84.2338+22.8601+78.121C18.842+63.1114+45.0431+58.3562+54.1974+65.5437C55.3945+66.4836+64.5567+75.1743+63.562+80.0971C58.2377+106.447+17.1846+94.4281+29.1489+70.8664C38.0375+53.3618+75.4046+58.2637+66.0479+81.4218C63.5807+87.5282+59.518+93.2062+54.4612+97.4258C43.5214+106.554+32.3453+103.704+28.5696+90.3449C23.9009+73.8268+23.5749+57.1032+39.835+47.1163C43.7738+44.6971+49.1852+45.4359+53.688+46.4814C75.5246+51.5517+66.3304+77.8027+49.2587+83.2074C45.3949+84.4307+41.1126+83.6471+37.101+83.0705C16.5165+80.1119+22.7931+32.8619+50.4275+42.4516C69.916+49.2144+62.8023+85.8963+42.5961+86.0169C31.9938+86.0801+28.0021+75.6252+26.7767+67.3331C24.1648+49.6578+42.9327+30.8696+59.9818+33.277C79.7205+36.0643+64.9933+80.5488+42.6829+78.0492C32.1992+76.8746+32.6316+59.4912+34.5342+53.2524C38.1214+41.4898+49.1479+31.0564+62.005+32.937C68.9608+33.9545+73.7675+45.1553+72.636+51.1385C69.6633+66.8564+61.8245+85.66+43.6041+78.892C22.5119+71.0573+44.8286+24.5362+68.0088+41.7753C76.3981+48.0144+66.488+85.525+48.4569+78.2612C36.6449+73.5027+41.7334+38.947+60.5598+39.7137C80.3408+40.5193+71.5631+89.3409+55.8723+82.3246C32.6813+71.9543+61.9682+42.4687+80.4307+51.1796C89.6469+55.5279+81.2065+94.9539+68.0972+85.1434C57.0445+76.8721+74.0769+46.5741+84.3682+58.6798C91.9524+67.601+76.8616+98.7409+58.9559+79.245C48.6016+67.9711+72.3385+33.8245+84.4049+49.3143C92.6626+59.9146+79.781+77.9553+69.4844+81.5982C58.2139+85.5857+48.1526+74.4412+52.9656+64.6141C57.1231+56.1252+79.1282+47.1367+86.6049+55.5555C92.2973+61.9652+86.5588+72.6694+83.7533+78.5811C81.2848+83.7825+80.1501+88.6198+73.9339+91.0445C58.0463+97.2414+55.3881+73.7333+58.9368+64.278C60.3783+60.4374+63.428+57.4119+65.6736+53.9789" vectornator:shadowOpacity="0.712923"/>
</g>
<g id="Ebene 2" vectornator:layerName="Ebene 2">
<path stroke="#000000" vectornator:shadowColor="#000000" vectornator:shadowOffset="10" stroke-width="10.73" fill="#00dfff" stroke-linecap="butt" vectornator:shadowAngle="1.5708" stroke-linejoin="round" opacity="1" vectornator:shadowRadius="10" d="M59.3182+32.184C56.5236+32.7429+57.3636+32.0402+57.009+36.4724C55.6712+53.1952+71.8878+39.4754+67.2353+34.823C63.0948+30.6825+54.2863+40.1578+58.9883+44.3896C65.4193+50.1775+70.3813+36.21+67.2353+31.8541C58.0771+19.1734+50.2938+47.8282+61.9572+50.3275C65.6319+51.1149+65.3952+46.2014+65.5859+44.3896C66.638+34.3954+50.8952+30.7193+53.0504+39.7712C53.953+43.5623+55.2496+47.2486+56.3492+50.9872" vectornator:shadowOpacity="0.712923"/>
<path stroke="#000000" vectornator:shadowColor="#000000" vectornator:shadowOffset="10" stroke-width="10.73" fill="#00dfff" stroke-linecap="butt" vectornator:shadowAngle="1.5708" stroke-linejoin="round" opacity="1" vectornator:shadowRadius="10" d="M173.127+32.8437C170.1+34.1257+169.322+40.7609+173.127+40.7609C185.763+40.7609+173.347+21.518+168.509+31.1943C165.659+36.8954+168.369+53.1705+177.416+50.6573C183.701+48.9116+181.24+37.452+177.416+34.823C175.054+33.1995+167.208+36.1662+169.829+39.4414C173.715+44.2994+183.572+36.3041+180.385+31.5242C177.889+27.7796+176.551+31.394+173.127+32.8437Z" vectornator:shadowOpacity="0.712923"/>
</g>
<g id="Ebene 1" vectornator:layerName="Ebene 1">
<path stroke="#000000" stroke-width="9" d="" fill="#000000" stroke-linecap="butt" opacity="1" stroke-linejoin="round"/>
<path stroke="#000000" vectornator:shadowColor="#000000" vectornator:shadowOffset="10" stroke-width="10.73" fill="#000000" stroke-linecap="butt" vectornator:shadowAngle="1.5708" stroke-linejoin="round" opacity="1" vectornator:shadowRadius="10" d="M109.781+378.844C131.992+376.943+154.676+365.123+173.838+354.216C182.233+349.438+190.97+347.487+199.791+343.642C212.589+338.064+225.514+329.131+236.47+320.639C297.52+273.322+330.627+204.375+366.25+137.871L370.583+139.978C360.095+161.376+352.849+184.306+341.787+205.413C330.484+226.978+310.213+251.269+294.052+269.347C259.248+308.281+237.587+334.202+188.395+355.097C163.278+365.765+138.448+384.446+109.781+381.992" vectornator:shadowOpacity="0.712923"/>
<path stroke="#000000" vectornator:shadowColor="#000000" vectornator:shadowOffset="10" stroke-width="10.73" fill="#000000" stroke-linecap="butt" vectornator:shadowAngle="1.5708" stroke-linejoin="round" opacity="1" vectornator:shadowRadius="10" d="M51.939+16.6231C31.3437+29.0789+14.2365+50.0799+16.5454+76.0438C16.8411+79.3685+19.211+82.1952+20.6369+85.1144C23.2389+90.4415+24.9769+97.5205+29.6455+101.54C47.5229+116.932+83.1569+124.485+102.263+109.015C117.088+97.0106+115.776+76.716+110.417+61.1407C108.149+54.5478+107.108+41.5339+102.709+36.5242C82.7684+13.8134+53.8278+13.307+30.898+33.3661L29.349+31.7259C38.2357+20.859+40.1797+17.7125+56.3797+12.5856C100.463-1.36558+127.204+46.5642+120.689+84.1033C118.84+94.7591+115.046+108.48+105.2+114.888C95.1658+121.419+85.0914+123.147+73.1929+122.015C56.2247+120.402+29.0417+113.853+19.499+97.5715C17.2468+93.7287+10.6089+76.7016+10.3586+72.4315C9.11248+51.1703+30.294+16.3735+52.6743+13.6817" vectornator:shadowOpacity="0.712923"/>
<path stroke="#000000" vectornator:shadowColor="#000000" vectornator:shadowOffset="10" stroke-width="10.73" fill="#000000" stroke-linecap="butt" vectornator:shadowAngle="1.5708" stroke-linejoin="round" opacity="1" vectornator:shadowRadius="10" d="M203.77+16.7598C184.604+16.1644+162.757+19.0836+150.847+35.907C138.923+52.7517+138.497+83.3021+152.217+99.7647C159.1+108.024+174.865+109.23+184.864+109.381C207.963+109.73+227.503+82.601+235.006+63.7402C240.069+51.0121+241.484+34.5093+229.561+24.6511C217.357+14.5602+192.083+17.7308+177.736+19.1248L177.446+16.7258C192.101+9.81813+186.066+10.6633+203.028+11.1819C210.472+11.4095+219.412+11.7677+226.404+15.0002C247.241+24.6336+247.469+47.9839+240.167+66.3888C227.91+97.2821+193.598+127.885+158.529+109.765C145.088+102.821+142.449+92.4839+138.878+78.7008C127.93+36.4539+164.29+4.76615+204.854+14.0491" vectornator:shadowOpacity="0.712923"/>
<path stroke="#000000" vectornator:shadowColor="#000000" vectornator:shadowOffset="10" stroke-width="10.73" fill="#000000" stroke-linecap="butt" vectornator:shadowAngle="1.5708" stroke-linejoin="round" opacity="1" vectornator:shadowRadius="10" d="M140.183+134.145C127.011+167.83+114.039+202.001+102.63+236.284C98.4475+248.85+93.154+261.053+89.4811+273.782C88.3921+277.556+87.0773+282.742+86.6424+286.806C86.5396+287.767+86.4483+289.668+87.4127+289.602C88.5456+289.524+82.8089+285.669+87.3129+284.805C103.41+281.716+119.289+285.613+135.603+284.882L136.896+291.431C129.861+295.16+126.806+297.109+116.198+298.092C112.542+298.431+109.028+296.485+105.399+295.923C99.0157+294.933+79.1384+302.055+77.1959+290.24C74.6443+274.721+86.0825+257.181+90.3505+242.808C97.0364+220.292+106.972+199.321+115.207+177.309C121.144+161.437+124.827+146.025+133.828+131.603" vectornator:shadowOpacity="0.712923"/>
</g>
</svg>
