<?xml version="1.0" encoding="UTF-8" standalone="no"?> <!-- Created with Vectornator for iOS (http://vectornator.io/) --><!DOCTYPE svg PUBLIC "-//W3C//DTD SVG 1.1//EN" "http://www.w3.org/Graphics/SVG/1.1/DTD/svg11.dtd">
<svg style="fill-rule:evenodd;clip-rule:evenodd;stroke-linecap:round;stroke-linejoin:round;" xmlns:vectornator="http://vectornator.io" xmlns:xlink="http://www.w3.org/1999/xlink" xmlns="http://www.w3.org/2000/svg" xml:space="preserve" version="1.1" viewBox="0 0 400 400">
<metadata>
<vectornator:setting key="GridSpacing" value="36"/>
<vectornator:setting key="SnapToPoints" value="0"/>
<vectornator:setting key="OutlineMode" value="0"/>
<vectornator:setting key="RulersVisible" value="1"/>
<vectornator:setting key="CMYKEnabledKey" value="0"/>
<vectornator:setting key="SnapToEdges" value="0"/>
<vectornator:setting key="DisplayWhiteBackground" value="0"/>
<vectornator:setting key="ShowGrid" value="1"/>
<vectornator:setting key="Units" value="Pixels"/>
<vectornator:setting key="DynamicGuides" value="0"/>
<vectornator:setting key="SnapToGrid" value="0"/>
<vectornator:setting key="IsolateActiveLayer" value="0"/>
</metadata>
<defs/>
<g id="Ebene 4" vectornator:layerName="Ebene 4">
<path stroke="#ffffff" vectornator:shadowColor="#000000" vectornator:shadowOffset="10" stroke-width="5.15" fill="#ffffff" stroke-linecap="butt" vectornator:shadowAngle="1.5708" stroke-linejoin="round" opacity="1" vectornator:shadowRadius="10" d="M225.978+37.8476C224.179+35.9532+205.594+21.7951+207.837+31.5345C208.3+33.5434+215.737+35.9419+217.434+36.9092C221.479+39.2146+226.612+46.6982+228.706+50.768C230.943+55.1162+232.751+60.78+233.607+65.6439C233.789+66.6833+233.591+68.1556+232.942+69.1463C232.617+69.6423+231.16+70.4302+231.752+70.4686C233.449+70.5787+235.262+70.235+236.74+69.3926C238.396+68.4482+235.573+65.7596+234.887+63.9809C233.357+60.0188+231.573+56.1629+230.036+52.2015C225.147+39.5986+222.373+33.2179+210.311+25.9823C208.978+25.1822+195.71+18.2951+195.736+18.4766C197.062+27.6715+201.298+25.6443+207.215+32.5164C212.949+39.1747+217.911+47.3176+221.103+55.4848C223.938+62.7378+225.904+70.3948+227.082+78.0876C227.708+82.1714+228.367+89.2198+228.463+89.2427C230.806+89.8036+233.46+91.3451+235.618+90.2726C236.401+89.8834+230.549+77.6685+230.471+77.4974C223.682+62.681+218.065+47.2363+208.396+33.9368C205.425+29.8497+202.528+24.9121+199.106+21.1491C196.738+18.545+193.329+16.8909+193.349+16.9012C197.771+19.1936+190.869+23.1833+190.931+23.3759C193.67+31.7897+208.25+48.1429+213.253+57.9826C218.344+67.996+222.184+79.9717+224.033+91.0759C224.197+92.0592+226.593+99.5839+225.482+100.356C223.376+101.82+230.388+97.7926+231.397+95.4345C232.265+93.4044+224.305+78.6129+222.407+73.7192C216.292+57.9553+210.424+42.3087+202.511+27.3867C199.175+21.0965+193.024+9.89153+185.148+8.98886C178.272+8.20068+183.839+23.3023+186.929+28.6113C193.379+39.6964+192.205+36.6702+198.006+48.9084C203.313+60.1023+209.501+71.0561+213.839+82.694C215.321+86.6701+216.658+90.5761+217.851+94.6436C218.339+96.3074+217.783+99.8931+219.488+99.5808C221.74+99.1683+225.35+99.7599+226.06+97.583C226.493+96.2552+220.438+81.9837+219.804+80.5413C212.531+64.0002+204.768+45.3226+194.488+30.2765C191.733+26.244+182.97+13.4376+179.06+23.4647C178.019+26.134+184.646+39.0811+185.874+41.5466C191.839+53.5277+198.901+64.8412+204.078+77.2283C206.838+83.8319+209.509+90.5533+212.521+97.0516C213.213+98.5445+214.354+101.433+214.281+103.201C214.234+104.352+213.711+107.636+214.319+106.658C215.751+104.357+217.87+102.507+219.145+100.115C219.927+98.6486+212.532+85.0187+211.935+83.6798C204.717+67.4983+197.414+51.6757+188.016+36.5942C183.822+29.8644+179.715+23.6951+174.945+17.4166C174.657+17.0379+172.298+12.7569+171.151+13.4946C161.905+19.4388+169.664+28.891+174.026+37.2393C182.218+52.9185+191.706+67.4911+198.673+83.859C201.446+90.3744+203.768+96.8225+204.949+103.882C205.246+105.659+207.841+108.207+206.287+109.117C203.374+110.823+211.473+104.033+211.893+100.684C212.341+97.1135+209.449+93.9073+207.972+90.6258C198.015+68.4991+187.747+46.0925+173.043+26.718C172.174+25.5733+164.523+13.7649+162.292+15.0698C160.06+16.3743+156.609+16.7585+155.721+19.1857C155.128+20.8046+162.981+32.7067+163.043+32.8072C171.745+46.8586+178.297+61.7719+185.566+76.5775C188.249+82.0426+190.608+87.8211+193.003+93.4168C193.908+95.5302+194.56+97.7474+195.497+99.8466C196.187+101.392+198.268+106.021+197.586+104.472C196.138+101.183+204.298+101.937+202.778+97.0406C196.878+78.0488+186.092+59.0872+175.266+42.5252C170.955+35.9295+165.778+30.5592+161.141+24.2941C159.763+22.433+158.198+20.0581+156.161+18.6795C155.223+18.0442+153.325+16.7381+152.882+17.7814C147.92+29.4765+156.47+38.2002+161.368+47.9304C170.937+66.9421+184.518+88.0065+191.477+107.851C192.834+111.719+194.08+100.06+194.973+96.0587C196.052+91.222+190.407+87.2604+188.006+82.9252C180.71+69.7534+174.574+56.0949+166.962+43.0846C165.89+41.2523+160.217+27.3021+155.151+29.7644C147.292+33.584+154.251+42.7965+156.102+47.1069C161.997+60.8412+168.094+74.8532+174.679+88.2989C176.521+92.0599+181.529+98.9935+182.101+103.363C182.476+106.232+186.242+98.7186+186.414+95.8303C186.593+92.8256+183.766+90.4239+182.415+87.7343C180.083+83.0934+177.736+78.4597+175.364+73.8391C168.728+60.9145+160.644+43.8773+150.99+32.5827C149.065+30.3304+144.571+35.1512+143.986+38.056C143.339+41.2732+146.239+44.2212+147.44+47.2752C151.84+58.4645+158.906+68.9069+164.742+79.338C165.69+81.0334+168.94+87.7617+169.749+89.7071C170.481+91.4663+170.202+96.8239+171.239+95.2254C172.358+93.4996+172.455+90.7636+174.309+89.8722C175.589+89.2565+177.612+93.323+178.024+91.963C178.024+91.9619+171.838+80.8298+171.041+79.4385C165.441+69.6668+156.874+56.9917+155.708+52.0325C155.378+50.6283+154.638+39.0923+152.412+39.5089C137.976+42.2107+144.949+51.9398+149.532+61.3087C154.658+71.788+163.196+79.8751+170.505+88.8548C172.119+90.8388+173.939+92.6561+175.474+94.703C176.64+96.2587+180.069+100.883+178.57+99.6463C175.887+97.4335+180.098+97.5325+180.863+94.8449C182.201+90.1485+169.518+82.8338+165.088+78.5213L163.363+79.8408C166.837+86.6475+170.897+94.7993+175.34+100.06C177.908+103.101+185.782+102.039+184.669+97.0322C182.381+86.7441+167.185+73.8688+161.385+64.6582C149.612+45.9637+160.841+49.8438+142.879+40.8647C142.599+40.7246+144.995+48.9909+145.015+49.3592C145.286+54.4941+145.348+56.7277+147.702+62.4757C151.953+72.8594+160.673+83.237+167.359+92.1328C168.236+93.2992+172.905+98.3691+174.309+98.2355C182.279+97.4771+174.422+82.9178+173.618+81.2053C168.041+69.3324+160.706+58.2117+154.963+46.3668C153.443+43.2306+153.866+38.8485+151.19+36.6151C149.303+35.0396+146.276+36.1709+143.821+36.3031C143.494+36.3207+143.084+36.733+143.178+37.0468C144.947+42.928+149.787+49.1618+153.064+54.3071C160.968+66.7171+166.522+80.063+173.766+92.8109C175.193+95.3236+176.279+98.5019+178.841+99.8398C181.474+101.215+189.48+103.25+187.692+100.878C179.21+89.6211+174.266+71.4849+168.54+58.7936C163.674+48.011+162.559+37.7362+152.083+34.4582C150.401+33.932+152.958+37.9102+153.805+39.455C155.641+42.8043+157.685+46.0498+159.418+49.4558C166.006+62.402+172.055+75.2096+179.771+87.5368C182.252+91.5017+182.623+97.7623+186.92+99.6115C190.681+101.23+201.645+103.138+197.978+104.961C195.776+106.056+197.245+103.528+197.087+103.015C196.325+100.55+194.709+98.4831+193.492+96.2378C190.392+90.5222+187.738+84.5255+184.928+78.666C180.567+69.5722+163.43+30.9808+158.344+26.3559C156.237+24.4404+152.768+25.1547+150.059+24.2779C147.851+23.5635+152.414+28.2779+153.698+30.2105C157.718+36.2628+162.333+41.6192+166.294+47.7749C174.423+60.4086+181.077+73.4701+187.362+87.074C188.51+89.5592+195.339+106.654+198.285+107.609C200.468+108.317+202.524+105.813+204.497+104.641C205.881+103.819+202.262+97.8223+202.025+97.3361C199.877+92.9417+198.158+87.2375+196.326+82.7682C188.834+64.491+180.359+45.4622+169.946+28.7556C167.904+25.4806+162.688+13.4338+156.33+19.9398C154.698+21.6097+158.542+24.0618+159.854+25.9933C164.67+33.0818+170.352+39.4579+174.839+46.7934C184.038+61.8316+190.704+78.7105+198.624+94.4569C200.155+97.5+200.631+101.409+203.274+103.557C205.942+105.725+215.88+105.486+212.914+107.224C212.276+107.597+212.619+105.776+212.488+105.049C212.3+104.001+211.184+99.7213+210.673+97.6799C209.127+91.5013+207.241+85.7646+204.6+79.963C197.38+64.0991+188.17+49.7445+180.138+34.4068C175.824+26.1699+176.271+16.7768+166.376+17.3144C166.324+17.3172+172.68+26.6061+173.216+27.505C177.379+34.5007+182.032+41.2799+185.979+48.4377C194.3+63.5236+200.91+79.6205+208.153+95.2281C209.649+98.4522+213.408+107.876+216.659+109.45C220.234+111.181+220.056+105.737+220.079+104.389C220.151+100.164+218.948+96.2359+217.318+92.3786C209.515+73.9183+201.474+56.3227+191.986+38.6702C188.595+32.3612+184.568+19.5673+180.562+25.2164C179.45+26.785+183.246+27.9808+184.433+29.4935C188.109+34.1769+190.564+38.9227+193.473+44.1389C200.53+56.7978+206.604+70.1398+212.505+83.3666C216.424+92.1519+214.811+97.9897+225.425+97.6019C227.095+97.5409+224.022+94.5576+223.533+92.96C222.222+88.6818+221.035+84.4086+219.479+80.2056C213.705+64.6093+205.768+49.4364+197.991+34.7404C196.368+31.6727+190.252+16.8354+187.413+14.5628C186.195+13.5873+182.521+13.0158+182.73+14.5626C183.297+18.7567+191.776+26.2031+193.993+30.3309C202.027+45.2853+207.723+61.4767+214.44+77.0804C215.131+78.6877+222.574+97.5892+223.6+98.219C226.268+99.8569+229.766+99.335+232.802+100.104C233.062+100.17+232.197+100.57+232.035+100.356C231.488+99.632+231.27+93.9944+230.979+92.8009C229.386+86.267+227.708+79.6328+226.271+73.0291C222.81+57.1248+212.58+41.5488+203.044+28.5146C201.55+26.4733+195.263+15.5759+192.207+16.4119C184.492+18.5224+196.323+29.1012+199.291+33.0939C208.52+45.5096+214.554+59.0109+220.595+73.3166C224.776+83.2164+224.315+89.1048+234.6+92.3109C236.238+92.8216+235.634+84.6014+235.586+84.2083C235.172+80.8192+234.792+77.2045+233.833+73.9241C228.783+56.6494+223.273+41.8987+210.977+28.0381C207.929+24.6025+204.696+22.8915+200.809+20.8206C199.307+20.0206+196.992+17.0159+196.24+18.5424C191.979+27.1932+212.601+30.3129+218.454+38.8276C223.404+46.0286+225.907+56.1195+228.76+64.2237C229.232+65.5624+229.842+71.7707+230.861+72.3321C232.469+73.2187+234.589+72.2545+236.352+72.7687C239.804+73.7753+237.385+59.2348+235.236+54.4989C232.035+47.4458+226.291+36.8946+218.908+33.2245C217.923+32.7349+209.488+28.4+209.347+28.5158C208.622+29.1115+206.902+31.2499+207.738+30.8238C213.07+28.1038+221.49+36.5036+224.481+39.3443" vectornator:shadowOpacity="0.712923"/>
<path stroke="#ffffff" vectornator:shadowColor="#000000" vectornator:shadowOffset="10" stroke-width="10.73" fill="#00d4ff" stroke-linecap="butt" vectornator:shadowAngle="1.5708" stroke-linejoin="round" opacity="1" vectornator:shadowRadius="10" d="M317.37+59.2116L317.231+66.7261L316.695+76.3404L313.736+84.2342L308.747+87.3468L305.178+84.8236L303.893+79.9784L302.462+75.5147L301.943+74.5267L300.7+66.8513L300.137+61.3325L300.52+57.9148L301.355+57.635L302.33+58.0275L303.623+58.4837L306.571+58.7151L308.205+59.2674L311.791+61.1016L316.976+64.4657L322.256+69.6889L322.476+70.3486L322.755+73.1813L320.842+74.747L319.846+73.5527L316.527+73.3337L310.625+72.4976L306.418+66.7921L306.269+65.1042L304.491+60.103L303.908+53.9643L303.232+52.6413L303.773+50.6809L305.602+50.0527L305.684+50.7634L307.325+52.0404L312.894+59.3903L314.194+62.4814L315.626+68.9424L312.617+77.2438L311.972+76.8301L308.322+78.1674L304.512+77.0012L304.117+71.839L302.03+65.8334L301.632+62.0109L301.894+60.5538L302.417+60.4486L302.941+61.456L304.322+62.5227L303.884+63.0584L306.093+67.2044L308.456+74.2086L307.467+79.5017L306.669+79.8135L305.279+79.5086L304.546+76.8009L307.73+72.3721L307.9+70.3291L307.48+63.3925L306.494+56.8263L307.602+54.1481L307.716+55.4132L308.89+55.2597L312.26+55.7003L317.682+58.549L320.649+61.9742L322.1+63.3609L323.566+67.3226L323.211+72.7626L322.883+73.0902L320.947+75.3004L318.125+75.0701L318.992+74.1629L321.171+71.1243L320.495+62.988L320.092+59.9877L319.756+50.2776L321.609+47.0931L323.753+47.5614L324.132+48.4057L326.636+51.334L326.425+52.8024L327.193+58.0739L327.627+60.9038L328.552+68.1917L325.619+74.3138L324.565+73.8554L324.21+70.0973L324.449+64.4359L322.867+54.5012L321.244+47.2755L321.304+43.6641L321.685+44.3648L323.204+45.4833L324.353+45.5612L327.964+47.2059L332.553+51.0149L333.084+53.2999L336.112+59.4832L337.105+66.0612L336.165+67.7742L332.136+71.8994L330.268+73.2245L324.728+72.332L324.16+70.0121L322.602+63.1656L319.714+46.8774L319.053+40.2693L323.026+38.4301L323.598+40.0078L327.182+41.5545L329.13+42.7082L334.686+48.7785L339.012+58.6185L337.918+68.3067L333.092+73.5278L331.986+72.0881L330.151+69.4442L327.246+66.8962L323.17+58.6674L322.162+54.558L320.864+43.4037L321.176+40.6064L323.913+39.9871L325.534+40.9873L331+42.8138L338.31+49.5232L339.239+51.1413L343.484+57.8621L344.659+60.2673L345.11+68.9491L337.864+78.3587L331.24+78.6352L329.874+70.5711L331.445+68.9349L330.733+58.2479L332.317+49.0079L337.752+46.9874L343.039+51.2005L342.832+53.5597L344.992+60.2032L345.047+62.7615L343.115+70.5022L336.393+76.3007L336.301+74.9839L331.964+73.5274L325.44+67.4746L323.887+59.2225L324.406+58.3133L325.407+54.3527L326.203+54.4403L330.456+54.1735L338.642+53.9335L340.354+55.5179L343.166+62.0105L343.68+64.582L345.071+74.3604L344.96+78.1523L341.624+88.1622L340.057+90.8352L333.365+95.8886L326.611+87.0192L326.981+72.674L327.199+65.4334L333.128+67.2278L332.216+69.2852L339.67+73.9925L345.503+80.5903L341.955+86.7926L340.072+84.8069L334.303+84.2086L326.594+84.4587L324.572+80.9189L330.433+75.978L331.755+77.7443L336.243+74.6971L343.195+71.1019L342.96+71.4242L345.594+73.4949L346.89+74.4153L347.925+78.3832L345.811+81.9127L341.43+88.148L340.434+88.5953L336.534+87.0324L336.034+78.4404L339.683+70.3472L346.209+65.0287L352.711+65.497L352.668+66.8125L352.038+73.5759L345.551+86.6145L343.668+87.4669L335.2+89.572L334.6+88.5888L332.755+82.1258L327.151+73.2837L327.62+72.9009L329.615+73.8456L333.623+81.212L332.052+82.9499L327.849+97.0596L326.12+99.7873L320.775+103.516L320.331+102.943L317.908+101.11L316.269+97.1924L322.234+96.3175L325.379+98.7814L314.636+104.186L312.95+100.489L309.983+104.551L304.299+106.393L302.624+99.0605L307.416+93.018L312.902+92.4116L312.644+94.6414L313.98+98.5743L312.067+99.8526L303.631+102.206L302.13+103.103L297.277+101.801L297.115+100.371L297.595+90.329L297.781+88.6171L295.686+83.2907L299.529+83.7454L291.82+104.793L290.299+103.077L287.84+105.791L287.987+95.272L292.466+83.5811L292.205+84.0698L290.412+91.6213L282.605+100.731L282.38+102.137L280.642+101.72L280.92+99.0235L289.833+92.8963L289.983+91.5306L291.159+80.4744L291.391+79.3571L295.476+76.6949L295.103+81.898L285.352+93.6277L284.991+95.6639L282.995+92.8972L292.61+77.6848L294.525+70.6598L295.871+71.776L290.454+78.4842L281.938+86.536L277.935+86.8755L291.737+70.5981L295.75+59.5978L297.43+59.201L291.282+66.4872L283.649+78.181L279.66+77.2879L286.798+60.0693L284.312+56.8765L288.565+67.3347L278.495+70.9717L275.055+76.9053L273.663+74.6958L286.779+70.4664L292.814+62.4272L293.519+61.1634L298.076+54.3734L301.875+48.7819L301.902+48.0821L304.59+44.1002L306.862+41.8598L308.023+42.9513L309.038+42.9687L312.467+42.7933L318.468+39.5992L324.978+36.139L325.867+35.9163L331.369+33.6362L333.071+30.7073L321.939+17.3449L311.689+23.6346L304.945+23.9957L300.535+26.1205L299.142+26.2539L296.438+26.0075L290.339+31.5582L286.332+34.2196L280.933+44.9195L283.059+61.1313L283.203+63.7608L284.066+63.9444L286.85+61.9556L292.934+51.7769L293.473+43.3436L296.723+42.0464L298.542+39.6799L303.095+38.114L303.022+38.2474L309.167+36.4137L317.599+35.4552L325.162+31.8484L323.926+14.5275L321.67+14.2376L315.956+17.8954L313.546+18.9922L310.159+21.4699L308.244+24.2137L303.755+25.3578L298.172+27.3544L292.736+30.4253L289.07+34.1227L286.48+38.058L285.848+38.6778L281.73+44.9621L275.07+56.6454L274.455+58.6805L273.893+79.6708L287.009+78.7403L288.915+77.8503L288.775+60.6921L277.385+58.3913L271.081+62.9116L273.874+72.2543L292.887+80.1068L298.796+77.2343L289.843+50.6619L282.375+53.9895L278.117+58.211L276.192+76.9001L291.314+89.6523L295.888+85.3735L286.052+63.0761L279.316+68.4648L277.363+72.22L278.618+82.3489L293.511+100.784L296.793+96.0385L297.093+92.1368L288.001+68.2393L281.69+67.5045L275.219+79.3571L274.132+81.5386L276.627+96.8729L277.436+100.785L293.607+109.173L295.864+106.477L297.426+99.462L297.2+96.9089L284.115+80.2882L280.343+85.8603L276.123+91.6272L289.839+109.626L301.862+112.301L307.98+99.1814L306.458+94.8265L290.173+79.5872L281.481+85.32L281.364+98.467L282.87+101.373L297.864+113.103L301.002+113.653L315.281+109.052L317.739+105.991L317.88+84.5924L314.647+82.5718L303.448+84.5255L299.891+88.0748L294.161+99.3441L300.272+111.115L311.133+114.999L319.964+110.903L324.915+103.09L324.548+96.7527L315.784+89.6222L311.012+96.7044L311.039+105.726L315.997+111.046L327.43+112.511L330.284+111.938L342.094+100.492L343.663+95.3025L338.14+72.4654L333.271+69.585L320.125+69.694L317.501+78.5558L317.97+80.8121L324.902+91.7629L337.572+98.4952L340.271+98.8315L354.895+91.6999L357.63+86.6145L361.7+65.3453L350.513+54.9549L345.851+55.6106L335.2+60.6973L326.551+73.1924L329.541+87.5312L338.277+96.0931L348.232+93.8704L350.535+91.6786L358.029+78.121L356.575+69.115L351.013+66.4852L349.01+64.7665L338.449+60.8994L336.234+61.2217L326.692+65.5437L318.645+75.032L317.327+80.0971L321.87+90.9905L328.424+94.7081L339.189+94.9583L351.893+87.7623L353.309+82.4778L351.741+70.8664L343.058+62.2897L330.06+59.7396L324.529+61.7969L314.624+68.2097L314.842+81.4218L326.428+97.4258L340.787+103.071L350.589+94.2696L352.32+90.3449L355.582+76.6033L355.471+71.8183L352.243+58.5049L350.118+54.4788L341.054+47.1163L337.488+46.7215L327.201+46.4814L316.939+51.4928L315.096+53.5596L314.118+62.1346L315.297+65.8437L321.661+76.065L331.631+83.2074L343.788+83.0705L346.335+81.094L354.788+71.0581L355.495+57.6864L354.23+53.6471L346.494+43.7964L341.669+42.197L330.462+42.4516L322.042+49.0079L319.007+60.8804L322.914+75.2644L327.123+80.8857L338.293+86.0169L348.822+81.0152L354.113+67.3331L352.584+55.5622L351.12+52.6893L345.469+43.5758L342.439+40.5755L331.276+33.4299L320.908+33.277L315.931+35.5968L312.07+41.5751L311.722+45.3755L314.383+58.6325L316.673+63.7597L323.814+74.0044L328.826+77.3942L338.207+78.0492L341.719+75.9497L347.449+65.9962L346.355+53.2524L340.125+41.9799L331.166+34.855L327.836+33.3697L318.884+32.937L315.498+35.1745L309.575+41.9122L308.253+51.1385L314.603+68.4983L322.941+79.4654L326.992+81.1041L337.285+78.892L340.036+76.2585L345.244+67.1885L345.623+62.9636L343.977+55.0268L339.088+46.6953L336.32+43.7022L329.694+39.594L322.748+37.9398L319.938+38.0178L312.881+41.7753L311.282+44.4553L310.023+50.0806L311.699+58.6893L316.715+72.5061L324.21+80.04L332.432+78.2612L334.677+75.8234L337.682+67.4308L337.948+57.5647L337.062+53.797L331.892+43.2342L329.042+40.744L320.33+39.7137L317.41+41.2178L312.297+45.6446L308.871+51.0371L309.195+62.4394L310.112+66.6965L314.054+77.6934L321.511+83.2317L325.017+82.3246L331.432+78.7954L333.454+71.7689L333.126+69.4575L330.792+61.7022L326.98+57.087L324.473+55.1748L319.522+52.6622L311.749+49.5729L307.202+49.3539L300.459+51.1796L299.253+53.1045L297.063+57.6837L296.736+64.9725L298.295+73.2105L299.785+78.4249L307.587+86.5316L312.792+85.1434L316.021+80.2202L316.542+77.2332L314.894+70.6505L311.319+63.1399L305.61+56.7297L303.853+55.9459L299.296+56.3528L296.521+58.6798L295.725+60.5538L295.327+63.7151L295.588+69.1293L299.44+78.2982L307.622+86.3313L314.368+85.8249L321.933+79.245L322.609+76.852L323.558+65.3605L319.712+57.9664L317.054+54.46L308.767+46.6353L303.15+45.2732L300.594+45.9839L296.484+49.3143L294.387+53.9515L294.371+56.5871L295.767+64.3034L299.266+71.8378L302.416+75.428L311.405+81.5982L319.358+81.4219L325.275+78.5638L328.239+75.3902L330.283+70.3583L327.924+64.6141L326.824+63.2945L320.228+57.9614L314.197+55.3877L309.206+53.2633L306.882+52.496L301.912+52.0677L297.927+52.5239L294.285+55.5555L293.14+57.9148L292.204+63.0739L292.961+69.4309L296.335+76.9301L297.136+78.5811L300.323+85.3334L306.955+91.0445L315.262+91.1603L321.489+85.0362L323.149+75.1163L321.953+64.278L315.216+53.9789L284.066+63.9444C294.118+56.7635+289.759+45.1002+298.542+39.6799C303.727+36.4795+323.93+35.9236+325.162+31.8484C326.837+26.3078+325.052+20.2052+323.926+14.5275C323.131+10.5178+309.163+23.6559+308.244+24.2137C303.513+27.086+297.553+26.844+292.736+30.4253C281.681+38.6454+265.664+66.5214+273.893+79.6708C276.218+83.3863+282.658+79.2676+287.009+78.7403C293.01+78.013+291.856+65.8925+288.775+60.6921C283.838+52.36+261.047+62.139+273.874+72.2543C296.797+90.33+308.811+77.5133+289.843+50.6619C288.403+48.6228+278.551+56.6029+278.117+58.211C273.631+74.8361+273.39+81.9414+291.314+89.6523C293.232+90.4774+296.294+87.4216+295.888+85.3735C294.31+77.4046+291.738+68.8776+286.052+63.0761C284.639+61.6348+277.49+69.6971+277.363+72.22C276.746+84.4926+283.083+92.9294+293.511+100.784C296.782+103.248+297.157+92.3393+297.093+92.1368C291.468+74.3534+288.155+61.8811+281.69+67.5045C265.267+81.7898+274.067+103.138+293.607+109.173C296.018+109.918+298.628+98.9663+297.2+96.9089C293.179+91.1167+290.013+84.1534+284.115+80.2882C282.239+79.0586+281.635+84.027+280.343+85.8603C278.97+87.8073+275.239+89.4152+276.123+91.6272C278.922+98.6318+283.958+104.902+289.839+109.626C302.057+119.44+305.432+108.865+307.98+99.1814C310.225+90.6462+298.421+82.7265+290.173+79.5872C277.97+74.9429+281.324+97.9985+281.364+98.467C283.07+118.178+305.596+113.486+315.281+109.052C327.636+103.397+324.999+76.4885+303.448+84.5255C287.141+90.6068+294.989+115.173+311.133+114.999C323.839+114.861+332.658+89.6823+315.784+89.6222C303.783+89.5794+313.558+125.647+330.284+111.938C346.581+98.5811+346.93+94.2158+338.14+72.4654C335.535+66.0183+320.327+63.9774+317.501+78.5558C315.506+88.848+331.602+95.7492+337.572+98.4952C355.257+106.629+363.483+73.2767+361.7+65.3453C358.398+50.658+342.407+54.1322+335.2+60.6973C325.787+69.2721+323.576+75.8816+329.541+87.5312C331.399+91.1605+334.415+94.7835+338.277+96.0931C348.614+99.5991+356.393+84.2338+358.029+78.121C362.047+63.1114+335.846+58.3562+326.692+65.5437C325.495+66.4836+316.333+75.1743+317.327+80.0971C322.652+106.447+363.705+94.4281+351.741+70.8664C342.852+53.3618+305.485+58.2637+314.842+81.4218C317.309+87.5282+321.371+93.2062+326.428+97.4258C337.368+106.554+348.544+103.704+352.32+90.3449C356.988+73.8268+357.315+57.1032+341.054+47.1163C337.116+44.6971+331.704+45.4359+327.201+46.4814C305.365+51.5517+314.559+77.8027+331.631+83.2074C335.494+84.4307+339.777+83.6471+343.788+83.0705C364.373+80.1119+358.096+32.8619+330.462+42.4516C310.973+49.2144+318.087+85.8963+338.293+86.0169C348.896+86.0801+352.887+75.6252+354.113+67.3331C356.725+49.6578+337.957+30.8696+320.908+33.277C301.169+36.0643+315.896+80.5488+338.207+78.0492C348.69+76.8746+348.258+59.4912+346.355+53.2524C342.768+41.4898+331.742+31.0564+318.884+32.937C311.929+33.9545+307.122+45.1553+308.253+51.1385C311.226+66.8564+319.065+85.66+337.285+78.892C358.377+71.0573+336.061+24.5362+312.881+41.7753C304.491+48.0144+314.401+85.525+332.432+78.2612C344.245+73.5027+339.156+38.947+320.33+39.7137C300.549+40.5193+309.326+89.3409+325.017+82.3246C348.208+71.9543+318.921+42.4687+300.459+51.1796C291.243+55.5279+299.683+94.9539+312.792+85.1434C323.845+76.8721+306.812+46.5741+296.521+58.6798C288.937+67.601+304.028+98.7409+321.933+79.245C332.288+67.9711+308.551+33.8245+296.484+49.3143C288.227+59.9146+301.108+77.9553+311.405+81.5982C322.676+85.5857+332.737+74.4412+327.924+64.6141C323.766+56.1252+301.761+47.1367+294.285+55.5555C288.592+61.9652+294.331+72.6694+297.136+78.5811C299.605+83.7825+300.739+88.6198+306.955+91.0445C322.843+97.2414+325.501+73.7333+321.953+64.278C320.511+60.4374+317.461+57.4119+315.216+53.9789" vectornator:shadowOpacity="0.712923"/>
</g>
<g id="Ebene 2" vectornator:layerName="Ebene 2">
<path stroke="#000000" vectornator:shadowColor="#000000" vectornator:shadowOffset="10" stroke-width="10.73" fill="#000000" stroke-linecap="butt" vectornator:shadowAngle="1.5708" stroke-linejoin="round" opacity="1" vectornator:shadowRadius="10" d="M315.142+99.15C304.415+101.494+311.235+114.607+320.255+108.387C322.894+106.567+323.981+102.684+323.884+99.4799C323.759+95.3804+311.901+98.0112+315.307+102.779C320.188+109.613+327.895+96.363+315.142+99.15Z" vectornator:shadowOpacity="0.712923"/>
<path stroke="#000000" vectornator:shadowColor="#000000" vectornator:shadowOffset="10" stroke-width="10.73" fill="#000000" stroke-linecap="butt" vectornator:shadowAngle="1.5708" stroke-linejoin="round" opacity="1" vectornator:shadowRadius="10" d="M205.126+93.2121C210.9+92.922+206.264+104.231+211.064+97.8305C213.732+94.2734+208.862+84.8575+205.456+88.2639C201.427+92.293+203.693+95.0825+205.786+101.129C205.947+101.594+206.31+100.283+206.446+99.8098C207.63+95.6629+199.504+93.4947+205.126+93.2121Z" vectornator:shadowOpacity="0.712923"/>
</g>
<g id="Ebene 1" vectornator:layerName="Ebene 1">
<path stroke="#000000" stroke-width="9" d="" fill="#000000" stroke-linecap="butt" opacity="1" stroke-linejoin="round"/>
<path stroke="#000000" vectornator:shadowColor="#000000" vectornator:shadowOffset="10" stroke-width="10.73" fill="#000000" stroke-linecap="butt" vectornator:shadowAngle="1.5708" stroke-linejoin="round" opacity="1" vectornator:shadowRadius="10" d="M271.108+378.844C248.897+376.943+226.213+365.123+207.052+354.216C198.657+349.438+189.919+347.487+181.098+343.642C168.3+338.064+155.376+329.131+144.419+320.639C83.3695+273.322+50.2626+204.375+14.6393+137.871L10.3062+139.978C20.7941+161.376+28.0406+184.306+39.1028+205.413C50.4051+226.978+70.676+251.269+86.837+269.347C121.642+308.281+143.302+334.202+192.495+355.097C217.611+365.765+242.441+384.446+271.108+381.992" vectornator:shadowOpacity="0.712923"/>
<path stroke="#000000" vectornator:shadowColor="#000000" vectornator:shadowOffset="10" stroke-width="10.73" fill="#000000" stroke-linecap="butt" vectornator:shadowAngle="1.5708" stroke-linejoin="round" opacity="1" vectornator:shadowRadius="10" d="M328.95+16.6231C349.546+29.0789+366.653+50.0799+364.344+76.0438C364.048+79.3685+361.678+82.1952+360.252+85.1144C357.651+90.4415+355.913+97.5205+351.244+101.54C333.367+116.932+297.732+124.485+278.627+109.015C263.801+97.0106+265.114+76.716+270.472+61.1407C272.74+54.5478+273.782+41.5339+278.18+36.5242C298.121+13.8134+327.062+13.307+349.991+33.3661L351.54+31.7259C342.654+20.859+340.71+17.7125+324.51+12.5856C280.427-1.36558+253.686+46.5642+260.2+84.1033C262.049+94.7591+265.844+108.48+275.69+114.888C285.724+121.419+295.798+123.147+307.697+122.015C324.665+120.402+351.848+113.853+361.39+97.5715C363.643+93.7287+370.281+76.7016+370.531+72.4315C371.777+51.1703+350.595+16.3735+328.215+13.6817" vectornator:shadowOpacity="0.712923"/>
<path stroke="#000000" vectornator:shadowColor="#000000" vectornator:shadowOffset="10" stroke-width="10.73" fill="#000000" stroke-linecap="butt" vectornator:shadowAngle="1.5708" stroke-linejoin="round" opacity="1" vectornator:shadowRadius="10" d="M177.12+16.7598C196.285+16.1644+218.132+19.0836+230.042+35.907C241.967+52.7517+242.392+83.3021+228.672+99.7647C221.79+108.024+206.024+109.23+196.026+109.381C172.927+109.73+153.386+82.601+145.884+63.7402C140.82+51.0121+139.405+34.5093+151.328+24.6511C163.532+14.5602+188.806+17.7308+203.153+19.1248L203.444+16.7258C188.788+9.81813+194.823+10.6633+177.861+11.1819C170.418+11.4095+161.477+11.7677+154.485+15.0002C133.649+24.6336+133.42+47.9839+140.722+66.3888C152.979+97.2821+187.291+127.885+222.361+109.765C235.801+102.821+238.44+92.4839+242.012+78.7008C252.959+36.4539+216.6+4.76615+176.036+14.0491" vectornator:shadowOpacity="0.712923"/>
<path stroke="#000000" vectornator:shadowColor="#000000" vectornator:shadowOffset="10" stroke-width="10.73" fill="#000000" stroke-linecap="butt" vectornator:shadowAngle="1.5708" stroke-linejoin="round" opacity="1" vectornator:shadowRadius="10" d="M240.706+134.145C253.878+167.83+266.85+202.001+278.26+236.284C282.442+248.85+287.735+261.053+291.408+273.782C292.497+277.556+293.812+282.742+294.247+286.806C294.35+287.767+294.441+289.668+293.477+289.602C292.344+289.524+298.081+285.669+293.577+284.805C277.479+281.716+261.601+285.613+245.286+284.882L243.993+291.431C251.029+295.16+254.083+297.109+264.691+298.092C268.347+298.431+271.862+296.485+275.49+295.923C281.874+294.933+301.751+302.055+303.693+290.24C306.245+274.721+294.807+257.181+290.539+242.808C283.853+220.292+273.917+199.321+265.683+177.309C259.745+161.437+256.062+146.025+247.061+131.603" vectornator:shadowOpacity="0.712923"/>
</g>
</svg>
