<?xml version="1.0" encoding="UTF-8" standalone="no"?> <!-- Created with Vectornator for iOS (http://vectornator.io/) --><!DOCTYPE svg PUBLIC "-//W3C//DTD SVG 1.1//EN" "http://www.w3.org/Graphics/SVG/1.1/DTD/svg11.dtd">
<svg height="100%" style="fill-rule:evenodd;clip-rule:evenodd;stroke-linecap:round;stroke-linejoin:round;" xmlns:xlink="http://www.w3.org/1999/xlink" xmlns="http://www.w3.org/2000/svg" xml:space="preserve" width="100%" xmlns:vectornator="http://vectornator.io" version="1.1" viewBox="0 0 400 400">
<metadata>
<vectornator:setting key="DisplayWhiteBackground" value="0"/>
<vectornator:setting key="RulersVisible" value="1"/>
<vectornator:setting key="SnapToEdges" value="0"/>
<vectornator:setting key="Units" value="Pixels"/>
<vectornator:setting key="DynamicGuides" value="0"/>
<vectornator:setting key="SnapToPoints" value="0"/>
<vectornator:setting key="CMYKEnabledKey" value="0"/>
<vectornator:setting key="SnapToGrid" value="0"/>
<vectornator:setting key="ShowGrid" value="1"/>
<vectornator:setting key="GridSpacing" value="36"/>
</metadata>
<defs/>
<g id="Ebene 4" vectornator:layerName="Ebene 4">
<path stroke="#ffffff" vectornator:shadowColor="#000000" vectornator:shadowOffset="10" stroke-width="5.15" fill="#ffffff" stroke-linecap="butt" vectornator:shadowAngle="1.5708" stroke-linejoin="round" opacity="1" vectornator:shadowRadius="10" d="M154.912+37.8476C156.711+35.9532+175.296+21.7951+173.052+31.5345C172.589+33.5434+165.152+35.9419+163.455+36.9092C159.41+39.2146+154.277+46.6982+152.183+50.768C149.946+55.1162+148.138+60.78+147.283+65.6439C147.1+66.6833+147.298+68.1556+147.947+69.1463C148.272+69.6423+149.729+70.4302+149.137+70.4686C147.44+70.5787+145.627+70.235+144.15+69.3926C142.493+68.4482+145.316+65.7596+146.003+63.9809C147.533+60.0188+149.316+56.1629+150.853+52.2015C155.742+39.5986+158.516+33.2179+170.578+25.9823C171.912+25.1822+185.18+18.2951+185.154+18.4766C183.827+27.6715+179.592+25.6443+173.674+32.5164C167.941+39.1747+162.979+47.3176+159.787+55.4848C156.952+62.7378+154.985+70.3948+153.807+78.0876C153.182+82.1714+152.522+89.2198+152.426+89.2427C150.083+89.8036+147.429+91.3451+145.272+90.2726C144.489+89.8834+150.34+77.6685+150.419+77.4974C157.207+62.681+162.824+47.2363+172.493+33.9368C175.464+29.8497+178.362+24.9121+181.783+21.1491C184.151+18.545+187.56+16.8909+187.54+16.9012C183.119+19.1936+190.021+23.1833+189.958+23.3759C187.219+31.7897+172.64+48.1429+167.637+57.9826C162.545+67.996+158.705+79.9717+156.857+91.0759C156.693+92.0592+154.297+99.5839+155.407+100.356C157.513+101.82+150.501+97.7926+149.493+95.4345C148.625+93.4044+156.584+78.6129+158.483+73.7192C164.597+57.9553+170.466+42.3087+178.379+27.3867C181.714+21.0965+187.865+9.89153+195.741+8.98886C202.618+8.20068+197.05+23.3023+193.961+28.6113C187.51+39.6964+188.685+36.6702+182.883+48.9084C177.577+60.1023+171.389+71.0561+167.051+82.694C165.569+86.6701+164.231+90.5761+163.038+94.6436C162.551+96.3074+163.107+99.8931+161.401+99.5808C159.149+99.1683+155.539+99.7599+154.829+97.583C154.396+96.2552+160.451+81.9837+161.086+80.5413C168.359+64.0002+176.121+45.3226+186.401+30.2765C189.156+26.244+197.919+13.4376+201.829+23.4647C202.87+26.134+196.244+39.0811+195.016+41.5466C189.05+53.5277+181.989+64.8412+176.812+77.2283C174.052+83.8319+171.381+90.5533+168.369+97.0516C167.676+98.5445+166.535+101.433+166.608+103.201C166.655+104.352+167.179+107.636+166.57+106.658C165.138+104.357+163.019+102.507+161.745+100.115C160.963+98.6486+168.357+85.0187+168.954+83.6798C176.172+67.4983+183.475+51.6757+192.874+36.5942C197.068+29.8644+201.174+23.6951+205.944+17.4166C206.232+17.0379+208.591+12.7569+209.739+13.4946C218.984+19.4388+211.225+28.891+206.864+37.2393C198.672+52.9185+189.183+67.4911+182.217+83.859C179.444+90.3744+177.121+96.8225+175.941+103.882C175.644+105.659+173.048+108.207+174.602+109.117C177.515+110.823+169.416+104.033+168.996+100.684C168.548+97.1135+171.44+93.9073+172.917+90.6258C182.875+68.4991+193.142+46.0925+207.847+26.718C208.716+25.5733+216.366+13.7649+218.598+15.0698C220.829+16.3743+224.281+16.7585+225.169+19.1857C225.761+20.8046+217.909+32.7067+217.846+32.8072C209.145+46.8586+202.592+61.7719+195.323+76.5775C192.64+82.0426+190.281+87.8211+187.886+93.4168C186.982+95.5302+186.329+97.7474+185.392+99.8466C184.703+101.392+182.622+106.021+183.303+104.472C184.751+101.183+176.591+101.937+178.112+97.0406C184.011+78.0488+194.798+59.0872+205.623+42.5252C209.935+35.9295+215.111+30.5592+219.748+24.2941C221.126+22.433+222.692+20.0581+224.728+18.6795C225.667+18.0442+227.565+16.7381+228.007+17.7814C232.969+29.4765+224.419+38.2002+219.522+47.9304C209.952+66.9421+196.371+88.0065+189.412+107.851C188.056+111.719+186.81+100.06+185.917+96.0587C184.837+91.222+190.483+87.2604+192.884+82.9252C200.179+69.7534+206.316+56.0949+213.927+43.0846C214.999+41.2523+220.672+27.3021+225.739+29.7644C233.598+33.584+226.638+42.7965+224.788+47.1069C218.892+60.8412+212.796+74.8532+206.211+88.2989C204.369+92.0599+199.36+98.9935+198.789+103.363C198.413+106.232+194.647+98.7186+194.475+95.8303C194.296+92.8256+197.123+90.4239+198.475+87.7343C200.807+83.0934+203.153+78.4597+205.526+73.8391C212.162+60.9145+220.245+43.8773+229.899+32.5827C231.824+30.3304+236.319+35.1512+236.903+38.056C237.55+41.2732+234.65+44.2212+233.449+47.2752C229.049+58.4645+221.984+68.9069+216.148+79.338C215.199+81.0334+211.949+87.7617+211.14+89.7071C210.409+91.4663+210.687+96.8239+209.651+95.2254C208.531+93.4996+208.434+90.7636+206.58+89.8722C205.3+89.2565+203.278+93.323+202.866+91.963C202.866+91.9619+209.051+80.8298+209.848+79.4385C215.448+69.6668+224.016+56.9917+225.182+52.0325C225.512+50.6283+226.252+39.0923+228.478+39.5089C242.913+42.2107+235.941+51.9398+231.358+61.3087C226.231+71.788+217.693+79.8751+210.385+88.8548C208.77+90.8388+206.95+92.6561+205.416+94.703C204.25+96.2587+200.82+100.883+202.32+99.6463C205.002+97.4335+200.792+97.5325+200.026+94.8449C198.689+90.1485+211.372+82.8338+215.801+78.5213L217.526+79.8408C214.053+86.6475+209.993+94.7993+205.549+100.06C202.981+103.101+195.107+102.039+196.22+97.0322C198.508+86.7441+213.704+73.8688+219.504+64.6582C231.278+45.9637+220.049+49.8438+238.01+40.8647C238.291+40.7246+235.894+48.9909+235.875+49.3592C235.603+54.4941+235.541+56.7277+233.188+62.4757C228.937+72.8594+220.216+83.237+213.53+92.1328C212.653+93.2992+207.985+98.3691+206.58+98.2355C198.611+97.4771+206.467+82.9178+207.272+81.2053C212.849+69.3324+220.183+58.2117+225.926+46.3668C227.447+43.2306+227.023+38.8485+229.699+36.6151C231.587+35.0396+234.613+36.1709+237.069+36.3031C237.396+36.3207+237.806+36.733+237.711+37.0468C235.942+42.928+231.102+49.1618+227.825+54.3071C219.921+66.7171+214.367+80.063+207.124+92.8109C205.696+95.3236+204.61+98.5019+202.048+99.8398C199.415+101.215+191.41+103.25+193.197+100.878C201.68+89.6211+206.623+71.4849+212.35+58.7936C217.215+48.011+218.331+37.7362+228.807+34.4582C230.488+33.932+227.932+37.9102+227.085+39.455C225.249+42.8043+223.204+46.0498+221.471+49.4558C214.884+62.402+208.834+75.2096+201.119+87.5368C198.637+91.5017+198.266+97.7623+193.97+99.6115C190.208+101.23+179.244+103.138+182.911+104.961C185.113+106.056+183.644+103.528+183.803+103.015C184.564+100.55+186.18+98.4831+187.398+96.2378C190.497+90.5222+193.151+84.5255+195.961+78.666C200.322+69.5722+217.459+30.9808+222.545+26.3559C224.652+24.4404+228.122+25.1547+230.831+24.2779C233.038+23.5635+228.475+28.2779+227.191+30.2105C223.172+36.2628+218.557+41.6192+214.596+47.7749C206.466+60.4086+199.813+73.4701+193.527+87.074C192.379+89.5592+185.55+106.654+182.604+107.609C180.421+108.317+178.365+105.813+176.392+104.641C175.009+103.819+178.627+97.8223+178.865+97.3361C181.013+92.9417+182.731+87.2375+184.563+82.7682C192.055+64.491+200.53+45.4622+210.944+28.7556C212.985+25.4806+218.201+13.4338+224.559+19.9398C226.191+21.6097+222.347+24.0618+221.035+25.9933C216.22+33.0818+210.537+39.4579+206.05+46.7934C196.851+61.8316+190.186+78.7105+182.265+94.4569C180.734+97.5+180.259+101.409+177.615+103.557C174.947+105.725+165.009+105.486+167.976+107.224C168.613+107.597+168.27+105.776+168.401+105.049C168.59+104.001+169.705+99.7213+170.216+97.6799C171.763+91.5013+173.649+85.7646+176.289+79.963C183.509+64.0991+192.719+49.7445+200.751+34.4068C205.065+26.1699+204.619+16.7768+214.514+17.3144C214.565+17.3172+208.209+26.6061+207.674+27.505C203.51+34.5007+198.858+41.2799+194.91+48.4377C186.59+63.5236+179.979+79.6205+172.737+95.2281C171.241+98.4522+167.481+107.876+164.231+109.45C160.656+111.181+160.833+105.737+160.81+104.389C160.739+100.164+161.942+96.2359+163.572+92.3786C171.374+73.9183+179.415+56.3227+188.904+38.6702C192.295+32.3612+196.321+19.5673+200.327+25.2164C201.439+26.785+197.643+27.9808+196.456+29.4935C192.78+34.1769+190.325+38.9227+187.417+44.1389C180.359+56.7978+174.285+70.1398+168.384+83.3666C164.465+92.1519+166.078+97.9897+155.465+97.6019C153.795+97.5409+156.867+94.5576+157.356+92.96C158.667+88.6818+159.855+84.4086+161.411+80.2056C167.185+64.6093+175.122+49.4364+182.898+34.7404C184.521+31.6727+190.638+16.8354+193.476+14.5628C194.695+13.5873+198.368+13.0158+198.159+14.5626C197.592+18.7567+189.113+26.2031+186.896+30.3309C178.862+45.2853+173.166+61.4767+166.45+77.0804C165.758+78.6877+158.316+97.5892+157.29+98.219C154.621+99.8569+151.123+99.335+148.088+100.104C147.827+100.17+148.692+100.57+148.854+100.356C149.402+99.632+149.619+93.9944+149.91+92.8009C151.503+86.267+153.181+79.6328+154.618+73.0291C158.079+57.1248+168.309+41.5488+177.846+28.5146C179.339+26.4733+185.627+15.5759+188.683+16.4119C196.398+18.5224+184.567+29.1012+181.599+33.0939C172.369+45.5096+166.335+59.0109+160.294+73.3166C156.114+83.2164+156.574+89.1048+146.29+92.3109C144.651+92.8216+145.255+84.6014+145.303+84.2083C145.717+80.8192+146.097+77.2045+147.056+73.9241C152.107+56.6494+157.617+41.8987+169.912+28.0381C172.96+24.6025+176.193+22.8915+180.081+20.8206C181.583+20.0206+183.897+17.0159+184.649+18.5424C188.911+27.1932+168.288+30.3129+162.436+38.8276C157.486+46.0286+154.982+56.1195+152.129+64.2237C151.658+65.5624+151.047+71.7707+150.029+72.3321C148.421+73.2187+146.3+72.2545+144.537+72.7687C141.086+73.7753+143.504+59.2348+145.653+54.4989C148.854+47.4458+154.599+36.8946+161.981+33.2245C162.966+32.7349+171.402+28.4+171.543+28.5158C172.267+29.1115+173.987+31.2499+173.152+30.8238C167.819+28.1038+159.4+36.5036+156.408+39.3443" vectornator:shadowOpacity="0.712923"/>
<path stroke="#ffffff" vectornator:shadowColor="#000000" vectornator:shadowOffset="10" stroke-width="5.15" fill="#ffffff" stroke-linecap="butt" vectornator:shadowAngle="1.5708" stroke-linejoin="round" opacity="1" vectornator:shadowRadius="10" d="M60.5896+25.7391C32.847+26.4935+20.0516+65.9776+29.6909+88.5682C32.9687+96.25+41.255+100.276+47.3611+104.901C52.5312+108.817+57.09+114.331+63.9916+114.531C77.2922+114.915+90.0065+105.707+96.2782+94.8611C97.2294+93.216+101.885+88.2999+101.098+86.1869C100.879+85.5987+102.256+78.7642+100.616+76.7345C96.8213+72.0373+91.7818+56.1083+88.243+49.5526C84.35+42.3409+87.3376+25.4798+74.9996+26.9045C52.5934+29.4917+38.7219+50.9372+37.449+71.2562C36.5269+85.9749+45.437+101.242+60.2325+103.375C74.1675+105.385+82.6572+101.356+88.9448+89.6172C89.6684+88.2663+92.6856+81.265+91.8606+79.7311C88.5678+73.6083+81.7467+68.6385+79.0318+61.3887C76.6487+55.0248+81.2964+47.4221+72.2547+45.1203C61.2015+42.3063+47.9061+67.0733+44.8207+75.7791C42.7352+81.6636+41.9988+89.2599+48.3933+91.2881C50.9727+92.1063+52.6505+90.511+55.0154+90.0128C57.4985+89.4897+63.3703+89.5672+65.5883+88.4039C74.0722+83.9542+78.0897+72.2291+68.2695+66.4953C55.4868+59.0317+47.6609+88.0781+61.8789+97.1828C64.0638+98.5819+68.8736+92.4486+69.2013+91.9856C73.657+85.6893+84.2914+70.4704+73.6148+63.7374C59.9489+55.1193+48.3873+93.1723+69.4002+97.9109C72.1252+98.5255+72.6573+93.3565+74.0104+90.9127C76.376+86.6402+86.6269+65.2437+72.724+65.4557C67.8953+65.5293+69.9923+68.6797+69.4665+70.565C67.3226+78.252+61.9578+91.6233+73.5349+95.1059C75.5756+95.7198+75.5326+91.3356+76.3743+89.3778C77.498+86.7641+78.4836+84.0869+79.3238+81.3688C81.7653+73.47+80.34+61.2987+71.6921+58.1043C70.6582+57.7224+68.0974+59.3877+64.9918+69.384C63.4855+74.2323+60.293+92.1148+69.5652+95.7156C72.0993+96.6997+74.6743+92.6533+75.4209+90.0395C75.8044+88.6969+72.1497+89.3196+71.7766+87.9741C70.0123+81.6118+74.2554+78.8698+71.7255+73.4929C70.5971+71.0946+65.6276+76.511+66.1054+79.1181C66.501+81.2771+68.9305+82.6164+70.8457+83.6887C71.5746+84.0968+70.5823+73.2923+69.5713+73.9853C66.1936+76.3006+70.3476+80.8462+72.8283+80.8819C80.933+80.9984+69.5553+79.5753+69.8983+68.9537C70.091+62.9846+73.1369+56.0661+69.9156+51.0371C67.5089+47.2795+64.9491+39.0844+60.961+41.0862C52.5726+45.2969+47.0624+54.5426+46.0635+63.8598C45.6624+67.6015+42.5292+75.7423+46.245+75.1478C55.4453+73.6757+56.8946+63.2298+56.1759+55.6361C55.6608+50.1928+43.2778+55.4031+42.8867+55.9768C38.1258+62.96+46.8878+74.6026+57.5305+65.2352C58.1608+64.6804+57.0135+63.4465+57.4312+62.718C64.8218+49.8296+66.6288+49.3091+76.1514+39.3949C77.7595+37.7206+79.3838+31.9909+80.552+33.997C95.2048+59.1577+80.28+34.5518+87.8992+44.1168C88.7158+45.1419+88.7958+46.8393+89.9408+47.4772C90.5422+47.8123+92.1163+46.4305+91.5003+46.1231C85.0066+42.8823+86.6325+47.5883+83.5107+43.3421C82.8205+42.4033+80.6885+34.1845+77.7087+35.028C73.0366+36.3506+63.1241+60.9973+74.9985+46.4487C75.3835+45.977+80.3517+29.7282+73.3908+31.4735C71.3684+31.9805+74.8796+42.2131+73.9099+40.6225C71.8302+37.2113+71.1015+27.3896+66.9889+26.1227C45.9558+19.6435+66.8328+27.9651+64.027+27.8594C49.2141+27.3016+48.7712+33.8935+40.505+45.6976C31.2196+58.957+20.5984+69.5115+33.3845+84.9434C33.9735+85.6543+35.4648+84.7205+35.9686+83.9469C37.9609+80.8877+39.9852+72.1646+37.7995+68.6699C34.3467+63.1494+33.9299+64.2235+26.1228+65.2826C20.7023+66.0179+23.8653+77.6338+29.1266+84.4194C37.6442+95.4046+51.1486+91.2646+62.8941+91.4548C68.8861+91.5518+75.7892+93.6329+81.0923+88.6641C82.3795+87.458+81.0638+84.0305+79.3366+83.6716C72.6406+82.2802+49.6966+86.2184+43.6166+90.7053C41.7537+92.0801+48.288+92.6484+50.4655+91.8617C52.3612+91.1768+53.6225+89.1605+54.4721+87.3326C54.682+86.8811+53.9516+76.0861+50.9297+73.2388C50.3812+72.7221+50.2289+74.6469+50.265+75.3997C50.3975+78.1632+51.1156+80.8689+51.4275+83.618C51.9646+88.3523+49.1192+106.71+59.7565+108.371C62.9545+108.871+77.032+96.2161+81.6064+94.0997C84.9907+92.5339+93.2694+90.0104+97.1486+92.6311C99.2368+94.0418+104.677+97.9167+104.164+95.4495C103.594+92.7142+101.064+90.7419+100.096+88.121C96.2666+77.7528+94.8713+65.3089+94.5205+54.4347C94.4535+52.3575+94.5585+39.0451+94.0408+35.3189C93.7342+33.1121+92.4693+28.3884+90.5943+29.5918C89.4153+30.3486+97.0062+30.8197+97.0927+31.0335C99.2874+36.4596+102.937+41.2794+104.722+46.6228C108.841+58.9532+106.535+88.4651+98.662+98.1865C96.0193+101.45+90.352+101.819+88.4502+105.563C88.0098+106.43+95.2775+104.622+98.585+100.414C102.471+95.4712+103.109+90.2+103.321+83.957C104.139+59.9153+91.6765+46.3001+72.3349+33.9123C54.835+22.704+37.4817+47.0937+29.1306+58.879C28.2943+60.0592+20.9726+70.1717+22.1976+74.1852C23.0583+77.0051+26.8658+77.8169+28.9274+79.9246C36.5258+87.6933+42.8603+95.859+52.2105+101.599L51.8986+102.138C48.2339+101.456+44.3782+101.444+40.9045+100.091C32.4929+96.8166+18.9475+80.9991+17.3787+72.077C16.3654+66.3143+21.9705+58.8629+24.5622+55.1168C34.065+41.3813+47.916+22.7263+66.1184+23.9738C93.8252+25.8726+111.986+52.1435+111.935+78.1664C111.907+92.4151+110.002+106.723+93.7708+110.204C89.2509+111.173+83.0141+106.653+85.2334+101.703C87.4006+96.869+88.4155+100.381+92.6673+95.9711C97.8973+90.5465+100.001+74.0016+99.4335+67.1549C99.0431+62.4482+100.318+54.8242+98.7074+50.2314C96.2265+43.1554+92.8224+39.1053+90.7075+31.0335C89.5892+26.7656+93.3459+21.3826+97.8749+23.9282C103.525+27.1037+103.298+35.7803+103.284+41.0932C103.247+54.8285+113.325+81.076+108.375+92.9285C100.756+111.173+101.47+92.8237+85.523+100.562C77.5539+104.429+64.4968+116.86+55.4442+112.003C40.5529+104.013+43.1545+81.0192+54.8524+71.8709C57.8658+69.5143+61.3924+77.6236+61.1829+81.4433C60.5566+92.8623+48.4157+101.824+41.4822+86.5765C39.7026+82.6626+48.0725+80.3928+52.2839+79.5273C67.9792+76.3017+75.1295+76.7595+84.2637+90.8237C88.659+97.5914+69.4719+97.7432+62.8941+97.6612C38.0932+97.3521+27.3664+98.4244+19.4193+71.0866C15.5534+57.7877+36.0911+58.8517+41.0381+61.5895C53.1869+68.3131+42.9747+92.1918+30.1512+87.8974C23.8993+85.8038+23.1263+74.6435+23.0851+69.5213C22.9894+57.6247+34.2385+46.1815+40.9154+37.0958C41.8066+35.8832+50.8558+23.6731+52.2993+22.7257C61.4047+16.7496+86.4737+25.7312+76.0928+37.7114C64.4198+51.1827+68.2507+21.6734+79.1179+27.5686C88.9042+32.8774+81.057+50.4245+71.4603+49.3972C63.977+48.5962+68.1192+35.9842+72.979+31.6301C78.9446+26.2853+84.3419+30.3037+88.6928+33.8892C94.7557+38.8855+95.6423+52.5468+85.2082+51.2354C82.9786+50.9551+83.2856+47.172+82.2552+45.175C81.5956+43.8967+79.6871+42.3889+80.5266+41.2208C81.7701+39.4908+84.5306+39.753+86.5774+39.1616C88.814+38.5154+83.4939+42.6513+81.9031+44.3512C78.9239+47.5346+75.9812+50.752+73.0311+53.9625C69.0951+58.2456+56.0915+77.774+44.6938+70.8698C32.7692+63.6465+42.2268+43.9491+55.3996+47.1887C72.6358+51.4276+61.4189+76.114+49.8452+78.5172C46.3809+79.2365+40.4083+77.104+40.4561+73.5662C40.7288+53.412+46.5517+39.1222+67.8521+35.6015C78.5419+33.8346+82.844+69.8226+81.4403+73.2095C79.8387+77.0739+79.1753+83.7828+74.9968+83.9784C66.05+84.3972+61.4098+73.8408+71.8806+71.1407C82.2058+68.4781+78.9564+94.3581+64.9683+84.8462C59.469+81.1067+65.2014+68.8316+70.7885+67.9787C74.7051+67.3808+78.5999+69.5218+82.3001+70.9382C93.5203+75.233+72.4201+105.985+63.7853+96.4254C49.6405+80.7665+61.7221+61.0964+76.1087+52.2289C77.6878+51.2556+88.0727+60.3802+88.8808+61.9699C95.5946+75.1783+85.979+97.2833+70.9255+98.4375C67.5227+98.6983+64.5081+94.7503+63.3637+91.5351C59.4865+80.6424+65.3485+56.0592+82.3055+59.6317C90.021+61.2572+92.4837+72.113+90.3826+78.0503C85.9537+90.5658+81.3091+101.173+66.4882+102.495C57.8064+103.269+53.0581+84.3724+52.4863+81.5388C49.9707+69.073+61.9725+55.4406+74.2264+54.4981C82.0073+53.8997+87.5954+62.816+87.7597+69.3604C88.09+82.5196+79.8566+100.527+65.0051+103.225C40.1918+107.734+45.3945+55.3943+67.3236+56.3615C81.4694+56.9853+85.5212+73.2804+82.1292+83.9943C78.1697+96.5007+54.552+101.143+44.1201+96.3154C34.1221+91.6888+34.7671+80.7933+38.1136+71.9956C41.4303+63.2764+55.9751+41.4338+64.5919+36.4012C67.893+34.4732+74.4691+35.9304+77.7332+37.1133C87.1394+40.5219+87.4216+47.2026+88.5455+54.9812C89.3575+60.6007+101.88+68.015+101.945+77.7124C102.13+105.757+74.963+115.856+51.2412+108.275C40.7858+104.933+35.961+95.0079+32.6722+85.3897C24.5598+61.6649+37.6981+37.2413+59.2681+25.0401C65.615+21.4499+73.4766+17.6052+81.0308+18.4687C87.8009+19.2426+101.369+37.9182+95.4039+41.873C95.1454+42.0444+99.5629+46.7632+101.578+52.4029C104.109+59.4882+107.389+65.8003+109.34+73.3623C115.449+97.0494+90.4247+118.309+68.5997+120.443C56.0791+121.667+52.5669+114.477+43.5082+108.42C36.8388+103.96+28.7356+97.8527+25.5144+89.9604C15.1765+64.6313+30.6297+22.4832+61.6694+23.2197" vectornator:shadowOpacity="0.712923"/>
</g>
<g id="Ebene 2" vectornator:layerName="Ebene 2">
<path stroke="#00dfff" vectornator:shadowColor="#000000" vectornator:shadowOffset="10" stroke-width="10.73" fill="#00dfff" stroke-linecap="butt" vectornator:shadowAngle="1.5708" stroke-linejoin="round" opacity="1" vectornator:shadowRadius="10" d="M61.2028+47.4458C62.2551+41.5765+63.7464+44.7596+60.8382+44.9886C59.8407+45.0671+60.3133+42.5991+59.3347+42.3906C59.2002+42.362+58.6779+48.1045+58.8798+48.175C59.3615+48.3435+62.7118+47.2276+62.4604+46.5514C62.4081+46.4109+62.1554+46.4959+62.0108+46.5355C58.01+47.6318+60.0649+50.4801+60.0649+50.4801C52.2604+47.5092+58.2611+40.6945+63.7796+43.4743C71.2246+47.2244+63.3478+54.7752+57.52+52.3369C51.213+49.698+53.3953+36.9315+60.6878+37.9991C65.5788+38.7152+68.8003+55.6859+58.5183+44.3035" vectornator:shadowOpacity="0.712923"/>
<path stroke="#00dfff" vectornator:shadowColor="#000000" vectornator:shadowOffset="10" stroke-width="10.73" fill="#00dfff" stroke-linecap="butt" vectornator:shadowAngle="1.5708" stroke-linejoin="round" opacity="1" vectornator:shadowRadius="10" d="M179.899+52.9111C175.48+62.1877+184.208+47.6462+179.753+44.8921C178.038+43.8318+179.821+47.1967+179.757+47.6879C179.678+48.3009+177.797+55.4239+178.707+56.3317C180.625+58.2429+182.842+49.1438+180.252+48.3573C179.916+48.2555+171.726+61.6881+176.543+52.0098C177.073+50.9462+177.46+49.8135+178.026+48.7685C185.457+35.0292+189.674+64.2362+176.797+58.5487C172.507+56.6541+175.874+40.9643+181.918+42.6811C183.072+43.0088+183.426+45.3764+183.576+46.0619" vectornator:shadowOpacity="0.712923"/>
</g>
<g id="Ebene 1" vectornator:layerName="Ebene 1">
<path stroke="#000000" stroke-width="9" d="" fill="#000000" stroke-linecap="butt" opacity="1" stroke-linejoin="round"/>
<path stroke="#000000" vectornator:shadowColor="#000000" vectornator:shadowOffset="10" stroke-width="10.73" fill="#000000" stroke-linecap="butt" vectornator:shadowAngle="1.5708" stroke-linejoin="round" opacity="1" vectornator:shadowRadius="10" d="M109.781+378.844C131.992+376.943+154.676+365.123+173.838+354.216C182.233+349.438+190.97+347.487+199.791+343.642C212.589+338.064+225.514+329.131+236.47+320.639C297.52+273.322+330.627+204.375+366.25+137.871L370.583+139.978C360.095+161.376+352.849+184.306+341.787+205.413C330.484+226.978+310.213+251.269+294.052+269.347C259.248+308.281+237.587+334.202+188.395+355.097C163.278+365.765+138.448+384.446+109.781+381.992" vectornator:shadowOpacity="0.712923"/>
<path stroke="#000000" vectornator:shadowColor="#000000" vectornator:shadowOffset="10" stroke-width="10.73" fill="#000000" stroke-linecap="butt" vectornator:shadowAngle="1.5708" stroke-linejoin="round" opacity="1" vectornator:shadowRadius="10" d="M51.939+16.6231C31.3437+29.0789+14.2365+50.0799+16.5454+76.0438C16.8411+79.3685+19.211+82.1952+20.6369+85.1144C23.2389+90.4415+24.9769+97.5205+29.6455+101.54C47.5229+116.932+83.1569+124.485+102.263+109.015C117.088+97.0106+115.776+76.716+110.417+61.1407C108.149+54.5478+107.108+41.5339+102.709+36.5242C82.7684+13.8134+53.8278+13.307+30.898+33.3661L29.349+31.7259C38.2357+20.859+40.1797+17.7125+56.3797+12.5856C100.463-1.36558+127.204+46.5642+120.689+84.1033C118.84+94.7591+115.046+108.48+105.2+114.888C95.1658+121.419+85.0914+123.147+73.1929+122.015C56.2247+120.402+29.0417+113.853+19.499+97.5715C17.2468+93.7287+10.6089+76.7016+10.3586+72.4315C9.11248+51.1703+30.294+16.3735+52.6743+13.6817" vectornator:shadowOpacity="0.712923"/>
<path stroke="#000000" vectornator:shadowColor="#000000" vectornator:shadowOffset="10" stroke-width="10.73" fill="#000000" stroke-linecap="butt" vectornator:shadowAngle="1.5708" stroke-linejoin="round" opacity="1" vectornator:shadowRadius="10" d="M203.77+16.7598C184.604+16.1644+162.757+19.0836+150.847+35.907C138.923+52.7517+138.497+83.3021+152.217+99.7647C159.1+108.024+174.865+109.23+184.864+109.381C207.963+109.73+227.503+82.601+235.006+63.7402C240.069+51.0121+241.484+34.5093+229.561+24.6511C217.357+14.5602+192.083+17.7308+177.736+19.1248L177.446+16.7258C192.101+9.81813+186.066+10.6633+203.028+11.1819C210.472+11.4095+219.412+11.7677+226.404+15.0002C247.241+24.6336+247.469+47.9839+240.167+66.3888C227.91+97.2821+193.598+127.885+158.529+109.765C145.088+102.821+142.449+92.4839+138.878+78.7008C127.93+36.4539+164.29+4.76615+204.854+14.0491" vectornator:shadowOpacity="0.712923"/>
<path stroke="#000000" vectornator:shadowColor="#000000" vectornator:shadowOffset="10" stroke-width="10.73" fill="#000000" stroke-linecap="butt" vectornator:shadowAngle="1.5708" stroke-linejoin="round" opacity="1" vectornator:shadowRadius="10" d="M57.3931+32.6506C40.756+41.983+51.9412+63.0072+64.8804+57.1185C70.5498+54.5384+74.409+41.5037+69.1097+37.1353C62.9646+32.0695+54.379+31.7767+47.4277+35.4879L47.1023+34.6458C70.546+16.0484+90.4967+46.1564+69.0416+60.2696C51.1814+72.0179+28.3589+37.9535+55.7909+28.9122" vectornator:shadowOpacity="0.712923"/>
<path stroke="#000000" vectornator:shadowColor="#000000" vectornator:shadowOffset="10" stroke-width="10.73" fill="#000000" stroke-linecap="butt" vectornator:shadowAngle="1.5708" stroke-linejoin="round" opacity="1" vectornator:shadowRadius="10" d="M177.843+36.5172C172.736+41.058+167.204+51.4942+169.716+58.6996C171.198+62.9512+180.451+64.3791+183.62+61.4812C191.09+54.6507+188.709+38.7623+179.486+34.4704C179.166+34.3211+172.869+39.1467+171.977+39.8162L170.097+38.384C170.791+36.9134+173.581+30.9363+173.899+30.7192C198.012+14.2628+206.732+70.5593+181.468+69.5206C175.169+69.2616+167.299+67.5671+163.982+61.4806C159.133+52.5827+168.8+34.7124+177.843+32.6081" vectornator:shadowOpacity="0.712923"/>
<path stroke="#000000" vectornator:shadowColor="#000000" vectornator:shadowOffset="10" stroke-width="10.73" fill="#000000" stroke-linecap="butt" vectornator:shadowAngle="1.5708" stroke-linejoin="round" opacity="1" vectornator:shadowRadius="10" d="M140.183+134.145C127.011+167.83+114.039+202.001+102.63+236.284C98.4475+248.85+93.154+261.053+89.4811+273.782C88.3921+277.556+87.0773+282.742+86.6424+286.806C86.5396+287.767+86.4483+289.668+87.4127+289.602C88.5456+289.524+82.8089+285.669+87.3129+284.805C103.41+281.716+119.289+285.613+135.603+284.882L136.896+291.431C129.861+295.16+126.806+297.109+116.198+298.092C112.542+298.431+109.028+296.485+105.399+295.923C99.0157+294.933+79.1384+302.055+77.1959+290.24C74.6443+274.721+86.0825+257.181+90.3505+242.808C97.0364+220.292+106.972+199.321+115.207+177.309C121.144+161.437+124.827+146.025+133.828+131.603" vectornator:shadowOpacity="0.712923"/>
</g>
</svg>
