<?xml version="1.0" encoding="UTF-8" standalone="no"?> <!-- Created with Vectornator for iOS (http://vectornator.io/) --><!DOCTYPE svg PUBLIC "-//W3C//DTD SVG 1.1//EN" "http://www.w3.org/Graphics/SVG/1.1/DTD/svg11.dtd">
<svg height="100%" style="fill-rule:evenodd;clip-rule:evenodd;stroke-linecap:round;stroke-linejoin:round;" xmlns:xlink="http://www.w3.org/1999/xlink" xmlns="http://www.w3.org/2000/svg" xml:space="preserve" width="100%" xmlns:vectornator="http://vectornator.io" version="1.1" viewBox="0 0 400 400">
<metadata>
<vectornator:setting key="DisplayWhiteBackground" value="0"/>
<vectornator:setting key="RulersVisible" value="1"/>
<vectornator:setting key="SnapToEdges" value="0"/>
<vectornator:setting key="Units" value="Pixels"/>
<vectornator:setting key="DynamicGuides" value="0"/>
<vectornator:setting key="SnapToPoints" value="0"/>
<vectornator:setting key="CMYKEnabledKey" value="0"/>
<vectornator:setting key="SnapToGrid" value="0"/>
<vectornator:setting key="ShowGrid" value="1"/>
<vectornator:setting key="GridSpacing" value="36"/>
</metadata>
<defs/>
<g id="Ebene 1" vectornator:layerName="Ebene 1">
<path stroke="#000000" stroke-width="9" d="" fill="#000000" stroke-linecap="butt" opacity="1" stroke-linejoin="round"/>
<path stroke="#000000" vectornator:shadowColor="#000000" vectornator:shadowOffset="10" stroke-width="10.73" fill="#000000" stroke-linecap="butt" vectornator:shadowAngle="1.5708" stroke-linejoin="round" opacity="1" vectornator:shadowRadius="10" d="M171.392+371.009C183.707+365.561+194.807+357.204+206.315+350.213C242.481+328.241+284.117+303.248+310.846+270.043C358.421+210.943+328.934+223.635+370.99+194.15L378.318+199.583C363.779+241.253+359.52+237.801+317.902+278.32C291.026+304.487+261.617+327.878+229.931+347.862C214.034+357.888+192.105+376.289+172.12+376.103" vectornator:shadowOpacity="0.712923"/>
<path stroke="#000000" vectornator:shadowColor="#000000" vectornator:shadowOffset="10" stroke-width="10.73" fill="#000000" stroke-linecap="butt" vectornator:shadowAngle="1.5708" stroke-linejoin="round" opacity="1" vectornator:shadowRadius="10" d="M76.5114+27.4399C42.5876+53.68+28.0108+106.469+38.5292+147.227C42.4598+162.458+54.9354+185.892+74.179+185.456C117.115+184.483+154.923+143.84+160.225+102.275C162.404+85.1896+167.325+64.062+155.253+49.1709C148.957+41.4038+140.35+41.0092+131.619+37.7326C102.908+26.9574+72.6792+21.3029+55.7346+54.4783C52.7079+60.4042+51.5542+67.1129+49.4639+73.4302L47.6865+72.6313C49.9994+49.4331+45.8198+45.606+64.8441+29.7044C88.6456+9.80968+130.999+20.5779+154.283+35.9465C158.99+39.0538+164.332+41.7172+167.728+46.2207C180.573+63.2535+174.727+87.2519+171.493+105.813C170.162+113.453+166.186+120.411+162.148+126.889C143.62+156.615+120.165+188.772+81.7728+191.137C54.4914+192.818+39.3639+172.37+31.9759+148.66C20.0079+110.254+39.2133+45.8718+74.8035+24.7074" vectornator:shadowOpacity="0.712923"/>
<path stroke="#000000" vectornator:shadowColor="#000000" vectornator:shadowOffset="10" stroke-width="10.73" fill="#000000" stroke-linecap="butt" vectornator:shadowAngle="1.5708" stroke-linejoin="round" opacity="1" vectornator:shadowRadius="10" d="M227.316+31.078C223.422+38.1168+217.818+43.9783+212.865+50.3022C193.746+74.7091+170.457+105.411+167.143+137.23C165.303+154.894+162.057+180.984+176.882+194.322C185.854+202.393+197.251+200.368+207.366+196.299C228.855+187.654+246.289+171.077+259.352+152.284C271.897+134.239+286.863+109.265+291.685+87.5955C296.455+66.1537+286.709+42.8014+263.681+38.7606C258.762+37.8973+253.965+35.4665+248.984+35.8396C241.792+36.3784+235.031+39.4962+228.083+41.4276C225.523+42.1391+210.674+59.6837+203.855+67.6414L200.81+65.3158C210.67+26.9697+236.101+16.5327+270.716+25.6174C283.884+29.0734+291.78+41.5376+299.067+51.541C307.407+62.9898+303.965+79.6282+300.372+91.6635C291.17+122.482+264.082+165.234+237.091+184.201C222.91+194.165+201.05+212.202+181.882+203.181C162.811+194.206+159.853+169.183+161.401+151.237C162.236+141.546+161.462+131.938+163.836+122.402C170.298+96.4481+188.828+71.3626+205.85+51.3403C213.146+42.7581+219.653+33.863+229.329+28.0583" vectornator:shadowOpacity="0.712923"/>
<path stroke="#000000" vectornator:shadowColor="#000000" vectornator:shadowOffset="10" stroke-width="10.73" fill="#000000" stroke-linecap="butt" vectornator:shadowAngle="1.5708" stroke-linejoin="round" opacity="1" vectornator:shadowRadius="10" d="M255.638+51.6607C239.027+49.7171+220.509+62.6743+234.882+76.6519C237.444+79.1436+236.92+77.1349+239.61+77.3184C249.681+78.0054+258.2+72.4186+257.296+60.4759C257.004+56.6246+250.604+54.7912+248.289+52.5537L248.979+50.7004C259.912+48.3972+268.586+57.7409+266.761+68.3477C263.589+86.7853+240.013+95.3567+226.568+81.6403C211.204+65.9665+233.289+37.4176+257.793+45.9149" vectornator:shadowOpacity="0.712923"/>
<path stroke="#000000" vectornator:shadowColor="#000000" vectornator:shadowOffset="10" stroke-width="10.73" fill="#000000" stroke-linecap="butt" vectornator:shadowAngle="1.5708" stroke-linejoin="round" opacity="1" vectornator:shadowRadius="10" d="M111.315+39.9253C102.19+43.4813+84.6142+48.1998+83.0699+60.4C82.6014+64.1009+83.1132+77.4867+88.5724+77.8163C90.4176+77.9277+91.4165+75.4542+92.8339+74.2677C96.7626+70.9792+100.031+71.6363+102.786+66.6446C105.29+62.1095+106.424+49.5524+101.294+47.7375L102.875+46.7804C119.592+52.1477+107.044+82.739+88.3574+81.795C76.4744+81.1946+78.5367+57.9563+82.079+51.278C86.7929+42.3908+103.623+40.2947+111.637+37.9939" vectornator:shadowOpacity="0.712923"/>
</g>
</svg>
